<svg width="1440" height="542" viewBox="0 0 1440 542" fill="none" xmlns="http://www.w3.org/2000/svg">
<g style="mix-blend-mode:overlay">
<path d="M1453.12 4.9436L1441.34 1M1453.12 4.9436H1418.2M1453.12 4.9436L1465.3 9.01744M1453.12 4.9436H1477.86M1441.34 1L1445.63 1.00154L1449.87 1.01008L1454.03 1.03408L1458.05 1.08137L1461.9 1.1581L1465.54 1.2736L1468.92 1.43404L1472.05 1.63865L1474.74 1.92157L1477.19 2.24943L1477.86 2.36427V4.9436M1441.34 1H1406.97M1406.97 1H1372.6M1406.97 1L1418.2 4.9436M1372.6 1H1338.24M1372.6 1L1383.27 4.9436M1338.24 1H1303.87M1338.24 1L1348.34 4.9436M1303.87 1H1269.5M1303.87 1L1313.41 4.9436M1269.5 1H1235.14M1269.5 1L1278.48 4.9436M1235.14 1H1200.77M1235.14 1L1243.56 4.9436M1200.77 1H1166.4M1200.77 1L1208.63 4.9436M1166.4 1H1132.04M1166.4 1L1173.7 4.9436M1132.04 1H1097.67M1132.04 1L1138.77 4.9436M1097.67 1H1063.3M1097.67 1L1103.84 4.9436M1063.3 1H1028.94M1063.3 1L1068.91 4.9436M1028.94 1H994.569M1028.94 1L1030.18 1.97427L1032.07 3.44926L1033.99 4.9436M994.569 1H960.202M994.569 1L995.677 1.97427L999.059 4.9436M960.202 1H925.835M960.202 1L964.13 4.9436M925.835 1H891.468M925.835 1L927.085 2.46411L928.351 3.9453L928.776 4.44368L929.203 4.9436M891.468 1H857.101M891.468 1L892.51 2.46411L892.86 2.95551L893.212 3.44926L894.275 4.9436M857.101 1H822.735M857.101 1L859.347 4.9436M822.735 1L822.942 1.48596L823.15 1.97427L824.205 4.44368L824.419 4.9436M822.735 1H788.368M788.368 1H754.001M788.368 1L789.491 4.9436M754.001 1H719.634M754.001 1L754.209 2.46411L754.562 4.9436M719.634 1H685.268M719.634 1V4.9436M685.268 1H650.9M685.268 1L685.059 2.46411L684.706 4.9436M650.9 1H616.534M650.9 1L649.778 4.9436M616.534 1L616.326 1.48596L616.118 1.97427L615.064 4.44368L614.85 4.9436M616.534 1H582.167M582.167 1H547.8M582.167 1L580.207 4.44368L579.922 4.9436M547.8 1H513.433M547.8 1L546.759 2.46411L546.408 2.95551L545.704 3.9453L545.35 4.44368L544.993 4.9436M513.433 1H479.066M513.433 1L512.184 2.46411L510.918 3.9453L510.493 4.44368L510.065 4.9436M479.066 1H444.7M479.066 1L475.138 4.9436M444.7 1H410.332M444.7 1L443.591 1.97427L440.21 4.9436M410.332 1H375.966M410.332 1L405.282 4.9436M375.966 1H341.599M375.966 1L370.353 4.9436M341.599 1H307.232M341.599 1L335.425 4.9436M307.232 1H272.865M307.232 1L300.497 4.9436M272.865 1H238.499M272.865 1L265.569 4.9436M238.499 1H204.132M238.499 1L230.641 4.9436M204.132 1H169.765M204.132 1L195.713 4.9436M169.765 1H135.398M169.765 1L160.785 4.9436M135.398 1H101.032M135.398 1L125.856 4.9436M101.032 1H66.6643M101.032 1L90.9283 4.9436M66.6643 1H32.2977M66.6643 1L56.001 4.9436M32.2977 1H-2.06887M32.2977 1L21.0728 4.9436M-2.06887 1L-6.35759 1.00154L-10.6021 1.01008L-14.7581 1.03408L-18.7838 1.08137L-22.635 1.1581L-26.2705 1.2736L-29.647 1.43404L-32.781 1.63865L-35.4703 1.92157L-37.9187 2.24943L-38.5917 2.36429V4.9436M-2.06887 1L-13.8553 4.9436M56.001 4.9436H90.9283M56.001 4.9436H21.0728M56.001 4.9436L44.9822 9.01744M90.9283 4.9436L80.4901 9.01744M90.9283 4.9436H125.856M195.713 4.9436H230.641M195.713 4.9436H160.785M195.713 4.9436L193.565 5.94966L187.014 9.01744M230.641 4.9436L222.522 9.01744M230.641 4.9436H265.569M335.425 4.9436H370.353M335.425 4.9436H300.497M335.425 4.9436L333.85 5.94966L333.057 6.45502L329.046 9.01744M370.353 4.9436L369.639 5.44508L368.922 5.94966L364.555 9.01744M370.353 4.9436H405.282M475.138 4.9436L474.637 5.44508L471.078 9.01744M475.138 4.9436H510.065M475.138 4.9436H440.21M510.065 4.9436L509.207 5.94966L508.774 6.45502L508.34 6.96348L506.586 9.01744M510.065 4.9436H544.993M614.85 4.9436H649.778M614.85 4.9436H579.922M614.85 4.9436L613.111 9.01744M649.778 4.9436L649.635 5.44508L649.492 5.94966L649.347 6.45502L648.911 7.98581L648.618 9.01744M649.778 4.9436H684.706M754.562 4.9436H789.491M754.562 4.9436H719.634M754.562 4.9436L755.142 9.01744M789.491 4.9436L789.633 5.44508L789.776 5.94966L789.921 6.45502L790.65 9.01744M789.491 4.9436H824.419M894.275 4.9436H929.203M894.275 4.9436H859.347M894.275 4.9436L894.99 5.94966L896.441 7.98581L896.806 8.50046L897.174 9.01744M929.203 4.9436L930.062 5.94966L930.494 6.45502L930.928 6.96348L932.682 9.01744M929.203 4.9436H964.13M1033.99 4.9436H1068.91M1033.99 4.9436H999.059M1033.99 4.9436L1035.28 5.94966L1035.92 6.45502L1039.21 9.01744M1068.91 4.9436L1069.63 5.44508L1070.35 5.94966L1074.71 9.01744M1068.91 4.9436H1103.84M1173.7 4.9436H1208.63M1173.7 4.9436H1138.77M1173.7 4.9436L1175.56 5.94966L1176.5 6.45502L1181.24 9.01744M1208.63 4.9436L1216.75 9.01744M1208.63 4.9436H1243.56M1313.41 4.9436H1348.34M1313.41 4.9436H1278.48M1313.41 4.9436L1323.27 9.01744M1348.34 4.9436L1358.78 9.01744M1348.34 4.9436H1383.27M-38.7141 41.822H-38.5917M-3.55847 41.822L9.77683 36.6173M-3.55847 41.822L-17.4048 47.2258M-3.55847 41.822H36.6188M-3.55847 41.822H-38.5917M9.77683 36.6173H-29.6596M9.77683 36.6173L22.6296 31.601M9.77683 36.6173H49.2133M-29.6596 36.6173L-16.0929 31.601M-29.6596 36.6173H-38.5917M-29.6596 36.6173L-38.5917 39.9192M9.61729 22.0938H46.9868M9.61729 22.0938L21.8105 17.5852M9.61729 22.0938H-27.7514M9.61729 22.0938L-3.00955 26.7629M46.9868 22.0938L58.5386 17.5852M46.9868 22.0938L35.025 26.7629M46.9868 22.0938H84.3562M21.8105 17.5852H58.5386M21.8105 17.5852L33.5922 13.2292M21.8105 17.5852H-14.9168M58.5386 17.5852H95.266M58.5386 17.5852L69.6996 13.2292M-38.9763 123.973H-38.5917M-6.55741 123.973L10.6385 115.344M-6.55741 123.973L-24.6079 133.031M-6.55741 123.973H45.3139M-6.55741 123.973H-38.5917M10.6385 115.344L27.0391 107.114M10.6385 115.344H61.2809M10.6385 115.344H-38.5917M-22.432 107.114H27.0391M-22.432 107.114L-5.65465 99.2563M-22.432 107.114H-38.5917M-22.432 107.114L-38.5917 114.682M10.3803 91.7457H57.6635M10.3803 91.7457L25.7217 84.5607M10.3803 91.7457H-36.903M10.3803 91.7457L-5.65465 99.2563M57.6635 91.7457L71.9829 84.5607M57.6635 91.7457L42.6973 99.2563M57.6635 91.7457H104.948M25.7217 84.5607H71.9829M25.7217 84.5607H-20.5388M25.7217 84.5607L40.4139 77.6796M71.9829 84.5607L85.695 77.6796M71.9829 84.5607H118.243M68.007 64.7559H111.449M68.007 64.7559L80.9798 58.68M68.007 64.7559H24.5654M68.007 64.7559L54.4964 71.0836M111.449 64.7559L123.557 58.68M111.449 64.7559L98.8392 71.0836M111.449 64.7559H154.891M80.9798 58.68H123.557M80.9798 58.68H38.403M80.9798 58.68L93.4463 52.8413M123.557 58.68L135.192 52.8413M123.557 58.68H166.134M116.973 41.822H157.151M116.973 41.822L128.086 36.6173M116.973 41.822H76.7961M116.973 41.822L105.435 47.2258M157.151 41.822L167.523 36.6173M157.151 41.822L146.381 47.2258M157.151 41.822H197.328M128.086 36.6173H167.523M128.086 36.6173H88.6497M128.086 36.6173L138.797 31.601M167.523 36.6173L177.519 31.601M167.523 36.6173H206.959M159.094 22.0938H196.464M159.094 22.0938L168.721 17.5852M159.094 22.0938H121.726M159.094 22.0938L149.126 26.7629M196.464 22.0938L205.448 17.5852M196.464 22.0938L187.16 26.7629M196.464 22.0938H233.833M168.721 17.5852H205.448M168.721 17.5852L178.022 13.2292M168.721 17.5852H131.993M205.448 17.5852H242.176M205.448 17.5852L214.13 13.2292M-12.0166 273.574L12.185 256.571M-12.0166 273.574L-37.9337 291.782M-12.0166 273.574H61.1482M-12.0166 273.574H-38.5917M12.185 256.571L34.8378 240.658M12.185 256.571H82.9298M12.185 256.571H-38.5917M11.6937 211.702H76.0521M11.6937 211.702L32.3751 198.494M11.6937 211.702L-10.2711 225.731M11.6937 211.702H-38.5917M76.0521 211.702L94.8529 198.494M76.0521 211.702L56.0839 225.731M76.0521 211.702H140.41M32.3751 198.494H94.8529M32.3751 198.494H-30.1027M32.3751 198.494L51.8829 186.034M94.8529 198.494L112.588 186.034M94.8529 198.494H157.332M87.7533 163.125H145.198M87.7533 163.125L104.282 152.569M87.7533 163.125H30.3097M87.7533 163.125L70.3133 174.264M145.198 163.125L160.223 152.569M145.198 163.125L129.342 174.264M145.198 163.125H202.641M104.282 152.569H160.223M104.282 152.569H48.3405M104.282 152.569L119.967 142.551M160.223 152.569L174.482 142.551M160.223 152.569H216.164M149.055 123.973H200.926M149.055 123.973L162.566 115.344M149.055 123.973H97.1845M149.055 123.973L134.873 133.031M200.926 123.973L213.209 115.344M200.926 123.973L188.033 133.031M200.926 123.973H252.797M162.566 115.344H213.209M162.566 115.344H111.924M162.566 115.344L175.452 107.114M213.209 115.344L224.923 107.114M213.209 115.344H263.851M199.515 91.7457H246.798M199.515 91.7457L210.765 84.5607M199.515 91.7457H152.231M199.515 91.7457L187.755 99.2563M246.798 91.7457L257.026 84.5607M246.798 91.7457L236.108 99.2563M246.798 91.7457H294.081M210.765 84.5607H257.026M210.765 84.5607H164.505M210.765 84.5607L221.539 77.6796M257.026 84.5607L266.821 77.6796M257.026 84.5607H303.287M241.774 64.7559H285.216M241.774 64.7559L251.288 58.68M241.774 64.7559H198.333M241.774 64.7559L231.867 71.0836M285.216 64.7559L286.317 63.9831L293.864 58.68M285.216 64.7559L276.209 71.0836M285.216 64.7559H328.658M251.288 58.68H293.864M251.288 58.68H208.711M251.288 58.68L260.43 52.8413M293.864 58.68L302.176 52.8413M293.864 58.68H336.442M277.682 41.822H317.861M277.682 41.822L285.833 36.6173M277.682 41.822H237.505M277.682 41.822L269.221 47.2258M317.861 41.822L325.269 36.6173M317.861 41.822L315.01 43.8248L310.168 47.2258M317.861 41.822H358.038M285.833 36.6173H325.269M285.833 36.6173H246.396M285.833 36.6173L293.687 31.601M325.269 36.6173L332.409 31.601M325.269 36.6173H364.705M308.571 22.0938H345.941M308.571 22.0938L315.631 17.5852M308.571 22.0938H271.203M308.571 22.0938L301.262 26.7629M345.941 22.0938L350.775 18.6982L351.568 18.1401L352.359 17.5852M345.941 22.0938L339.295 26.7629M345.941 22.0938H383.31M315.631 17.5852H352.359M315.631 17.5852L322.452 13.2292M315.631 17.5852H278.904M352.359 17.5852H389.086M352.359 17.5852L358.559 13.2292M14.492 467.261H115.227M14.492 467.261L46.2112 435.427M14.492 467.261L-20.3627 502.243M14.492 467.261L-38.5917 467.262M115.227 467.261L142.415 435.427M115.227 467.261L85.3514 502.243M115.227 467.261H215.961M46.2112 435.427H142.415M46.2112 435.427L75.1999 406.333M46.2112 435.427H-38.5917M142.415 435.427L167.262 406.333M142.415 435.427H238.618M126.283 355.065H211.048M126.283 355.065L148.903 332.362M126.283 355.065H41.5188M126.283 355.065L101.795 379.641M211.048 355.065L230.436 332.362M211.048 355.065L190.058 379.641M211.048 355.065H295.812M148.903 332.362H230.436M148.903 332.362H67.3704M148.903 332.362L169.863 311.327M230.436 332.362L248.402 311.327M230.436 332.362H311.969M207.479 273.574H280.644M207.479 273.574L224.42 256.571M207.479 273.574H134.313M207.479 273.574L189.337 291.782M280.644 273.574L295.165 256.571M280.644 273.574L265.094 291.782M280.644 273.574H353.808M224.42 256.571H295.165M224.42 256.571H153.675M224.42 256.571L240.277 240.658M295.165 256.571L308.756 240.658M295.165 256.571H365.91M269.126 211.702H333.485M269.126 211.702L282.288 198.494M269.126 211.702H204.769M269.126 211.702L255.149 225.731M333.485 211.702L344.766 198.494M333.485 211.702L321.504 225.731M333.485 211.702H397.843M282.288 198.494H344.766M282.288 198.494H219.809M282.288 198.494L294.702 186.034M344.766 198.494L355.406 186.034M344.766 198.494H407.244M317.528 163.125H374.972M317.528 163.125L328.046 152.569M317.528 163.125H260.085M317.528 163.125L306.43 174.264M374.972 163.125L383.987 152.569M374.972 163.125L365.459 174.264M374.972 163.125H432.416M328.046 152.569H383.987M328.046 152.569H272.105M328.046 152.569L338.028 142.551M383.987 152.569L392.543 142.551M383.987 152.569H439.929M356.539 123.973H408.409M356.539 123.973L365.137 115.344M356.539 123.973H304.667M356.539 123.973L347.513 133.031M408.409 123.973L415.779 115.344M408.409 123.973L400.673 133.031M408.409 123.973H460.28M365.137 115.344H415.779M365.137 115.344H314.494M365.137 115.344L373.337 107.114M415.779 115.344L422.808 107.114M415.779 115.344H466.422M388.649 91.7457H435.933M388.649 91.7457L395.809 84.5607M388.649 91.7457H341.366M388.649 91.7457L381.166 99.2563M435.933 91.7457L442.069 84.5607M435.933 91.7457L429.519 99.2563M435.933 91.7457H483.216M395.809 84.5607H442.069M395.809 84.5607H349.547M395.809 84.5607L402.665 77.6796M442.069 84.5607L447.946 77.6796M442.069 84.5607H488.33M415.541 64.7559H458.984M415.541 64.7559L421.595 58.68M415.541 64.7559H372.1M415.541 64.7559L409.236 71.0836M458.984 64.7559L458.32 65.5325L453.579 71.0836M458.984 64.7559L464.172 58.68M458.984 64.7559H502.425M421.595 58.68H464.172M421.595 58.68H379.019M421.595 58.68L427.413 52.8413M464.172 58.68L469.159 52.8413M464.172 58.68H506.75M438.392 41.822H478.57M438.392 41.822L443.578 36.6173M438.392 41.822H398.215M438.392 41.822L433.008 47.2258M478.57 41.822L483.015 36.6173M478.57 41.822L476.86 43.8248L475.706 45.1758L473.955 47.2258M478.57 41.822H518.747M443.578 36.6173H483.015M443.578 36.6173H404.142M443.578 36.6173L448.576 31.601M483.015 36.6173L484.64 34.7145L485.711 33.4604L487.3 31.601M483.015 36.6173H522.451M458.049 22.0938H495.418M458.049 22.0938L461.433 18.6982L462.541 17.5852M458.049 22.0938H420.68M458.049 22.0938L453.987 26.17L453.397 26.7629M495.418 22.0938L498.319 18.6982L498.795 18.1401L499.269 17.5852M495.418 22.0938L493.442 24.4074L491.431 26.7629M495.418 22.0938H532.788M462.541 17.5852H499.269M462.541 17.5852L466.882 13.2292M462.541 17.5852H425.814M499.269 17.5852H535.997M499.269 17.5852L502.989 13.2292M417.431 467.261H518.165M417.431 467.261L431.024 435.427M417.431 467.261H316.696M417.431 467.261L402.493 502.243M518.165 467.261L527.228 435.427M518.165 467.261L508.207 502.243M518.165 467.261H618.9M431.024 435.427H527.228M431.024 435.427H334.821M431.024 435.427L443.448 406.333M527.228 435.427L535.51 406.333M527.228 435.427H623.431M465.341 355.065H550.105M465.341 355.065L475.035 332.362M465.341 355.065H380.576M465.341 355.065L454.846 379.641M550.105 355.065L556.568 332.362M550.105 355.065L543.109 379.641M550.105 355.065H634.87M475.035 332.362H556.568M475.035 332.362H393.502M475.035 332.362L484.018 311.327M556.568 332.362L562.557 311.327M556.568 332.362H638.101M500.139 273.574H573.304M500.139 273.574L507.4 256.571M500.139 273.574H426.974M500.139 273.574L492.364 291.782M573.304 273.574L578.144 256.571M573.304 273.574L568.121 291.782M573.304 273.574H646.469M507.4 256.571H578.144M507.4 256.571H436.655M507.4 256.571L514.195 240.658M578.144 256.571L582.675 240.658M578.144 256.571H648.889M526.56 211.702H590.917M526.56 211.702L532.2 198.494M526.56 211.702H462.202M526.56 211.702L520.569 225.731M590.917 211.702L594.678 198.494M590.917 211.702L586.924 225.731M590.917 211.702H655.276M532.2 198.494H594.678M532.2 198.494H469.722M532.2 198.494L537.52 186.034M594.678 198.494L598.225 186.034M594.678 198.494H657.156M547.303 163.125H604.747M547.303 163.125L551.81 152.569M547.303 163.125H489.859M547.303 163.125L542.547 174.264M604.747 163.125L607.752 152.569M604.747 163.125L601.576 174.264M604.747 163.125H662.191M551.81 152.569H607.752M551.81 152.569H495.87M551.81 152.569L556.089 142.551M607.752 152.569L610.604 142.551M607.752 152.569H663.693M564.022 123.973H615.892M564.022 123.973L567.706 115.344M564.022 123.973H512.151M564.022 123.973L560.154 133.031M615.892 123.973L618.349 115.344M615.892 123.973L613.314 133.031M615.892 123.973H667.764M567.706 115.344H618.349M567.706 115.344H517.064M567.706 115.344L569.044 112.213L571.221 107.114M618.349 115.344L620.692 107.114M618.349 115.344H668.992M577.784 91.7457H625.067M577.784 91.7457L580.852 84.5607M577.784 91.7457H530.5M577.784 91.7457L575.392 97.3473L574.576 99.2563M625.067 91.7457L625.845 89.0144L627.112 84.5607M625.067 91.7457L622.929 99.2563M625.067 91.7457H672.351M580.852 84.5607L581.226 83.6841L583.79 77.6796M580.852 84.5607H627.112M580.852 84.5607H534.591M627.112 84.5607L627.857 81.9456L628.102 81.083L628.347 80.2257L629.071 77.6796M627.112 84.5607H673.374M589.309 64.7559H632.75M589.309 64.7559L590.619 61.6873L590.943 60.9301L591.264 60.1759L591.585 59.4264L591.903 58.68M589.309 64.7559H545.867M589.309 64.7559L586.607 71.0836M632.75 64.7559L634.054 60.1759L634.268 59.4264L634.48 58.68M632.75 64.7559L630.949 71.0836M632.75 64.7559H676.193M591.903 58.68H634.48M591.903 58.68H549.326M591.903 58.68L593.473 55.0038L593.782 54.2791L594.397 52.8413M634.48 58.68L635.526 55.0038L635.733 54.2791L635.938 53.5583L636.142 52.8413M634.48 58.68H677.057M599.102 41.822H639.28M599.102 41.822L601.325 36.6173M599.102 41.822H558.924M599.102 41.822L598.533 43.1536L597.67 45.1758L596.795 47.2258M639.28 41.822L639.09 42.4862L637.936 46.5391L637.741 47.2258M639.28 41.822L640.761 36.6173M639.28 41.822H679.457M601.325 36.6173H640.761M601.325 36.6173H561.888M601.325 36.6173L603.467 31.601M640.761 36.6173L641.303 34.7145L641.482 34.0859L641.66 33.4604L642.189 31.601M640.761 36.6173H680.198M607.527 22.0938H644.895M607.527 22.0938L608.977 18.6982L609.451 17.5852M607.527 22.0938H570.157M607.527 22.0938L606.787 23.8254L606.538 24.4074L606.288 24.9926L605.532 26.7629M644.895 22.0938L645.059 21.5218L645.382 20.3848L645.703 19.2578L646.179 17.5852M644.895 22.0938L644.237 24.4074L644.071 24.9926L643.735 26.17L643.567 26.7629M644.895 22.0938H682.265M609.451 17.5852H646.179M609.451 17.5852L611.082 13.7656L611.312 13.2292M609.451 17.5852H572.724M646.179 17.5852L646.337 17.0326L646.493 16.4822L646.649 15.9342L646.804 15.3886L647.266 13.7656L647.42 13.2292M646.179 17.5852H682.907M820.368 467.261H921.103M820.368 467.261L815.837 435.427M820.368 467.261H719.634M820.368 467.261L825.348 502.243M921.103 467.261L912.041 435.427M921.103 467.261L931.062 502.243M921.103 467.261H1021.84M815.837 435.427H912.041M815.837 435.427H719.634M815.837 435.427L811.696 406.333M912.041 435.427L903.758 406.333M912.041 435.427H1008.24M804.398 355.065H889.163M804.398 355.065L801.167 332.362M804.398 355.065H719.634M804.398 355.065L807.897 379.641M889.163 355.065L882.7 332.362M889.163 355.065L896.159 379.641M889.163 355.065H973.927M801.167 332.362H882.7M801.167 332.362H719.634M801.167 332.362L798.173 311.327M882.7 332.362L876.712 311.327M882.7 332.362H964.233M792.799 273.574H865.965M792.799 273.574L790.379 256.571M792.799 273.574H719.634M792.799 273.574L795.391 291.782M865.965 273.574L861.124 256.571M865.965 273.574L871.147 291.782M865.965 273.574H939.129M790.379 256.571H861.124M790.379 256.571H719.634M790.379 256.571L788.114 240.658M861.124 256.571L856.593 240.658M861.124 256.571H931.869M783.993 211.702H848.351M783.993 211.702L782.112 198.494M783.993 211.702H719.634M783.993 211.702L785.989 225.731M848.351 211.702L844.591 198.494M848.351 211.702L852.344 225.731M848.351 211.702H912.708M782.112 198.494H844.591M782.112 198.494H719.634M782.112 198.494L780.339 186.034M844.591 198.494L841.043 186.034M844.591 198.494H907.068M777.078 163.125H834.521M777.078 163.125L775.575 152.569M777.078 163.125H719.634M777.078 163.125L778.664 174.264M834.521 163.125L831.517 152.569M834.521 163.125L837.692 174.264M834.521 163.125H891.965M775.575 152.569H831.517M775.575 152.569H719.634M775.575 152.569L774.149 142.551M831.517 152.569L828.665 142.551M831.517 152.569H887.458M771.505 123.973H823.376M771.505 123.973L770.277 115.344M771.505 123.973H719.634M771.505 123.973L772.794 133.031M823.376 123.973L820.919 115.344M823.376 123.973L825.955 133.031M823.376 123.973H875.247M770.277 115.344H820.919M770.277 115.344H719.634M770.277 115.344L769.105 107.114M820.919 115.344L818.576 107.114M820.919 115.344H871.562M766.918 91.7457H814.202M766.918 91.7457L765.895 84.5607M766.918 91.7457H719.634M766.918 91.7457L767.987 99.2563M814.202 91.7457L812.406 85.442L812.156 84.5607M814.202 91.7457L816.339 99.2563M814.202 91.7457H861.485M765.895 84.5607L765.771 83.6841L764.915 77.6796M765.895 84.5607H812.156M765.895 84.5607H719.634M812.156 84.5607L811.411 81.9456L811.166 81.083L810.921 80.2257L810.197 77.6796M812.156 84.5607H858.416M763.076 64.7559H806.518M763.076 64.7559L762.211 58.68M763.076 64.7559H719.634M763.076 64.7559L763.409 67.0982L763.522 67.8872L763.634 68.6801L763.862 70.2783L763.977 71.0836M806.518 64.7559L805.214 60.1759L804.788 58.68M806.518 64.7559L808.319 71.0836M806.518 64.7559H849.96M762.211 58.68H804.788M762.211 58.68H719.634M762.211 58.68L761.38 52.8413M804.788 58.68L803.742 55.0038L803.535 54.2791L803.33 53.5583L803.126 52.8413M804.788 58.68H847.365M759.811 41.822H799.989M759.811 41.822L759.071 36.6173M759.811 41.822H719.634M759.811 41.822L760.581 47.2258M799.989 41.822L800.178 42.4862L801.332 46.5391L801.527 47.2258M799.989 41.822L798.507 36.6173M799.989 41.822H840.166M759.071 36.6173H798.507M759.071 36.6173H719.634M759.071 36.6173L758.357 31.601M798.507 36.6173L797.965 34.7145L797.787 34.0859L797.608 33.4604L797.079 31.601M798.507 36.6173H837.943M757.004 22.0938H794.373M757.004 22.0938L756.362 17.5852M757.004 22.0938H719.634M757.004 22.0938L757.668 26.7629M794.373 22.0938L794.21 21.5218L793.886 20.3848L793.725 19.8197L793.406 18.6982L793.248 18.1401L793.089 17.5852M794.373 22.0938L795.032 24.4074L795.198 24.9926L795.533 26.17L795.702 26.7629M794.373 22.0938H831.742M756.362 17.5852L756.283 17.0326L756.204 16.4822L756.127 15.9342L755.742 13.2292M756.362 17.5852H793.089M756.362 17.5852H719.634M793.089 17.5852H829.817M793.089 17.5852L792.775 16.4822L792.619 15.9342L792.464 15.3886L792.002 13.7656L791.849 13.2292M1223.31 467.261H1324.04M1223.31 467.261L1200.65 435.427M1223.31 467.261H1122.57M1223.31 467.261L1248.2 502.243M1324.04 467.261L1296.85 435.427M1324.04 467.261L1353.92 502.243M1324.04 467.261H1424.78M1200.65 435.427H1296.85M1200.65 435.427H1104.45M1200.65 435.427L1179.94 406.333M1296.85 435.427L1272.01 406.333M1296.85 435.427H1393.06M1143.46 355.065H1228.22M1143.46 355.065L1127.3 332.362M1143.46 355.065H1058.69M1143.46 355.065L1160.95 379.641M1228.22 355.065L1208.83 332.362M1228.22 355.065L1249.21 379.641M1228.22 355.065H1312.99M1127.3 332.362H1208.83M1127.3 332.362H1045.77M1127.3 332.362L1112.33 311.327M1208.83 332.362L1190.87 311.327M1208.83 332.362H1290.36M1085.46 273.574H1158.62M1085.46 273.574L1073.36 256.571M1085.46 273.574H1012.29M1085.46 273.574L1098.42 291.782M1158.62 273.574L1144.1 256.571M1158.62 273.574L1174.17 291.782M1158.62 273.574H1231.79M1073.36 256.571H1144.1M1073.36 256.571H1002.61M1073.36 256.571L1062.03 240.658M1144.1 256.571L1130.51 240.658M1144.1 256.571H1214.85M1041.43 211.702H1105.78M1041.43 211.702L1032.02 198.494M1041.43 211.702H977.067M1041.43 211.702L1051.41 225.731M1105.78 211.702L1094.5 198.494M1105.78 211.702L1117.76 225.731M1105.78 211.702H1170.14M1032.02 198.494H1094.5M1032.02 198.494H969.546M1032.02 198.494L1023.16 186.034M1094.5 198.494L1083.86 186.034M1094.5 198.494H1156.98M1006.85 163.125H1064.3M1006.85 163.125L999.34 152.569M1006.85 163.125H949.409M1006.85 163.125L1014.78 174.264M1064.3 163.125L1055.28 152.569M1064.3 163.125L1073.81 174.264M1064.3 163.125H1121.74M999.34 152.569H1055.28M999.34 152.569H943.398M999.34 152.569L992.21 142.551M1055.28 152.569L1046.73 142.551M1055.28 152.569H1111.22M978.988 123.973H1030.86M978.988 123.973L972.847 115.344M978.988 123.973H927.117M978.988 123.973L985.435 133.031M1030.86 123.973L1023.49 115.344M1030.86 123.973L1038.6 133.031M1030.86 123.973H1082.73M972.847 115.344H1023.49M972.847 115.344H922.204M972.847 115.344L966.99 107.114M1023.49 115.344L1016.46 107.114M1023.49 115.344H1074.13M956.052 91.7457L956.707 92.6666L957.366 93.592L961.397 99.2563M956.052 91.7457H1003.34M956.052 91.7457L950.938 84.5607M956.052 91.7457H908.769M1003.34 91.7457L997.199 84.5607M1003.34 91.7457L1009.75 99.2563M1003.34 91.7457H1050.62M950.938 84.5607H997.199M950.938 84.5607H904.678M950.938 84.5607L946.041 77.6796M997.199 84.5607L991.322 77.6796M997.199 84.5607H1043.46M936.843 64.7559H980.285M936.843 64.7559L932.519 58.68M936.843 64.7559H893.401M936.843 64.7559L941.347 71.0836M980.285 64.7559L977.017 60.9301L975.096 58.68M980.285 64.7559L985.689 71.0836M980.285 64.7559H1023.73M932.519 58.68H975.096M932.519 58.68H889.942M932.519 58.68L928.874 53.5583L928.363 52.8413M975.096 58.68L970.109 52.8413M975.096 58.68H1017.67M920.521 41.822H960.699M920.521 41.822L919.582 40.502L916.817 36.6173M920.521 41.822H880.344M920.521 41.822L921.469 43.1536L923.392 45.8555L924.367 47.2258M960.699 41.822L956.254 36.6173M960.699 41.822L962.409 43.8248L963.562 45.1758L965.314 47.2258M960.699 41.822H1000.88M916.817 36.6173H956.254M916.817 36.6173H877.38M916.817 36.6173L914.127 32.8372L913.246 31.601M956.254 36.6173L954.628 34.7145L953.557 33.4604L951.969 31.601M956.254 36.6173H995.69M906.481 22.0938H943.85M906.481 22.0938L904.462 19.2578L903.272 17.5852M906.481 22.0938H869.111M906.481 22.0938L909.804 26.7629M943.85 22.0938L940.949 18.6982L940.474 18.1401L939.999 17.5852M943.85 22.0938L945.826 24.4074L947.837 26.7629M943.85 22.0938H981.219M903.272 17.5852H939.999M903.272 17.5852L901.709 15.3886L900.937 14.3043L900.553 13.7656L900.172 13.2292M903.272 17.5852H866.544M939.999 17.5852H976.727M939.999 17.5852L936.279 13.2292M1453.43 332.362H1371.9M1453.43 332.362L1426.48 311.327M1453.43 332.362H1477.86M1453.43 332.362L1477.86 351.432M1378.12 273.574H1451.28M1378.12 273.574L1356.34 256.571M1378.12 273.574H1304.96M1378.12 273.574L1401.45 291.782M1451.28 273.574L1427.08 256.571M1451.28 273.574L1477.2 291.782M1451.28 273.574H1477.86M1356.34 256.571H1427.08M1356.34 256.571H1285.59M1356.34 256.571L1335.95 240.658M1427.08 256.571L1404.43 240.658M1427.08 256.571H1477.86M1298.86 211.702H1363.22M1298.86 211.702L1281.94 198.494M1298.86 211.702H1234.5M1298.86 211.702L1316.83 225.731M1363.22 211.702L1344.42 198.494M1363.22 211.702L1383.18 225.731M1363.22 211.702H1427.57M1281.94 198.494H1344.42M1281.94 198.494H1219.46M1281.94 198.494L1265.98 186.034M1344.42 198.494L1326.68 186.034M1344.42 198.494H1406.89M1236.63 163.125H1294.07M1236.63 163.125L1223.1 152.569M1236.63 163.125H1179.18M1236.63 163.125L1250.9 174.264M1294.07 163.125L1279.05 152.569M1294.07 163.125L1309.93 174.264M1294.07 163.125H1351.52M1223.1 152.569H1279.05M1223.1 152.569H1167.16M1223.1 152.569L1210.27 142.551M1279.05 152.569L1264.79 142.551M1279.05 152.569H1334.99M1186.47 123.973H1238.34M1186.47 123.973L1175.42 115.344M1186.47 123.973H1134.6M1186.47 123.973L1198.08 133.031M1238.34 123.973L1226.06 115.344M1238.34 123.973L1251.24 133.031M1238.34 123.973H1290.21M1175.42 115.344H1226.06M1175.42 115.344H1124.77M1175.42 115.344L1164.87 107.114M1226.06 115.344L1214.34 107.114M1226.06 115.344H1276.7M1145.19 91.7457H1192.47M1145.19 91.7457L1135.98 84.5607M1145.19 91.7457H1097.9M1145.19 91.7457L1154.81 99.2563M1192.47 91.7457L1182.24 84.5607M1192.47 91.7457L1203.16 99.2563M1192.47 91.7457H1239.75M1135.98 84.5607H1182.24M1135.98 84.5607H1089.72M1135.98 84.5607L1127.17 77.6796M1182.24 84.5607L1172.45 77.6796M1182.24 84.5607H1228.5M1110.61 64.7559H1154.05M1110.61 64.7559L1102.83 58.68M1110.61 64.7559H1067.17M1110.61 64.7559L1118.72 71.0836M1154.05 64.7559L1145.4 58.68M1154.05 64.7559L1163.06 71.0836M1154.05 64.7559H1197.49M1102.83 58.68H1145.4M1102.83 58.68H1060.25M1102.83 58.68L1095.35 52.8413M1145.4 58.68L1137.09 52.8413M1145.4 58.68H1187.98M1081.23 41.822H1121.41M1081.23 41.822L1074.56 36.6173M1081.23 41.822H1041.05M1081.23 41.822L1082.94 43.1536L1083.8 43.8248L1088.15 47.2258M1121.41 41.822L1114 36.6173M1121.41 41.822L1129.1 47.2258M1121.41 41.822H1161.59M1074.56 36.6173H1114M1074.56 36.6173H1035.13M1074.56 36.6173L1068.14 31.601M1114 36.6173L1106.86 31.601M1114 36.6173H1153.44M1055.96 22.0938H1093.33M1055.96 22.0938L1050.18 17.5852M1055.96 22.0938H1018.59M1055.96 22.0938L1061.94 26.7629M1093.33 22.0938L1088.49 18.6982L1087.7 18.1401L1086.91 17.5852M1093.33 22.0938L1099.97 26.7629M1093.33 22.0938H1130.7M1050.18 17.5852H1086.91M1050.18 17.5852L1045.29 13.7656L1044.6 13.2292M1050.18 17.5852H1013.45M1086.91 17.5852H1123.64M1086.91 17.5852L1080.71 13.2292M1466.4 163.125L1446.87 152.569M1466.4 163.125H1408.96M1466.4 163.125L1477.86 169.317M1466.4 163.125H1477.86M1446.87 152.569H1390.93M1446.87 152.569L1428.33 142.551M1446.87 152.569H1477.86M1393.95 123.973H1445.83M1393.95 123.973L1377.99 115.344M1393.95 123.973H1342.08M1393.95 123.973L1410.72 133.031M1445.83 123.973L1428.63 115.344M1445.83 123.973L1463.88 133.031M1445.83 123.973H1477.86M1377.99 115.344H1428.63M1377.99 115.344H1327.34M1377.99 115.344L1362.76 107.114M1428.63 115.344L1412.23 107.114M1428.63 115.344H1477.86M1334.32 91.7457H1381.6M1334.32 91.7457L1321.02 84.5607M1334.32 91.7457H1287.04M1334.32 91.7457L1348.22 99.2563M1381.6 91.7457L1367.29 84.5607M1381.6 91.7457L1396.57 99.2563M1381.6 91.7457H1428.89M1321.02 84.5607H1367.29M1321.02 84.5607H1274.76M1321.02 84.5607L1308.29 77.6796M1367.29 84.5607L1353.57 77.6796M1367.29 84.5607H1413.55M1284.38 64.7559H1327.82M1284.38 64.7559L1273.13 58.68M1284.38 64.7559H1240.94M1284.38 64.7559L1296.09 71.0836M1327.82 64.7559L1315.71 58.68M1327.82 64.7559L1340.43 71.0836M1327.82 64.7559H1371.26M1273.13 58.68H1315.71M1273.13 58.68H1230.56M1273.13 58.68L1262.33 52.8413M1315.71 58.68L1304.08 52.8413M1315.71 58.68H1358.29M1241.94 41.822H1282.12M1241.94 41.822L1232.31 36.6173M1241.94 41.822H1201.76M1241.94 41.822L1251.94 47.2258M1282.12 41.822L1271.75 36.6173M1282.12 41.822L1292.89 47.2258M1282.12 41.822H1322.29M1232.31 36.6173H1271.75M1232.31 36.6173H1192.87M1232.31 36.6173L1223.03 31.601M1271.75 36.6173L1261.75 31.601M1271.75 36.6173H1311.18M1205.43 22.0938H1242.8M1205.43 22.0938L1197.09 17.5852M1205.43 22.0938H1168.07M1205.43 22.0938L1214.07 26.7629M1242.8 22.0938L1233.82 17.5852M1242.8 22.0938L1252.11 26.7629M1242.8 22.0938H1280.17M1197.09 17.5852H1233.82M1197.09 17.5852L1189.03 13.2292M1197.09 17.5852H1160.36M1233.82 17.5852H1270.55M1233.82 17.5852L1225.14 13.2292M1458.14 64.7559L1443.44 58.68M1458.14 64.7559H1414.7M1458.14 64.7559L1473.46 71.0836M1458.14 64.7559H1477.86M1443.44 58.68H1400.87M1443.44 58.68L1429.31 52.8413M1443.44 58.68H1477.86M1402.65 41.822H1442.83M1402.65 41.822L1390.06 36.6173M1402.65 41.822H1362.47M1402.65 41.822L1415.73 47.2258M1442.83 41.822L1429.49 36.6173M1442.83 41.822L1456.67 47.2258M1442.83 41.822H1477.86M1390.06 36.6173H1429.49M1390.06 36.6173H1350.62M1390.06 36.6173L1377.92 31.601M1429.49 36.6173L1416.64 31.601M1429.49 36.6173H1468.93M1354.91 22.0938H1392.28M1354.91 22.0938L1344 17.5852M1354.91 22.0938H1317.54M1354.91 22.0938L1366.21 26.7629M1392.28 22.0938L1380.73 17.5852M1392.28 22.0938L1404.24 26.7629M1392.28 22.0938H1429.65M1344 17.5852H1380.73M1344 17.5852L1333.46 13.2292M1344 17.5852H1307.27M1380.73 17.5852H1417.46M1380.73 17.5852L1369.57 13.2292M1404.24 26.7629L1416.64 31.601M1404.24 26.7629H1442.28M1404.24 26.7629H1366.21M1429.65 22.0938L1417.46 17.5852M1429.65 22.0938L1442.28 26.7629M1429.65 22.0938H1467.02M1417.46 17.5852H1454.19M1417.46 17.5852L1405.68 13.2292M1369.57 13.2292H1333.46M1369.57 13.2292H1405.68M1369.57 13.2292L1358.78 9.01744M1442.28 26.7629L1455.36 31.601M1442.28 26.7629H1477.86M1467.02 22.0938L1454.19 17.5852M1467.02 22.0938L1477.86 25.9014M1467.02 22.0938H1477.86M1454.19 17.5852L1441.78 13.2292M1454.19 17.5852H1477.86M1405.68 13.2292H1441.78M1405.68 13.2292L1394.29 9.01744M1441.78 13.2292L1429.79 9.01744M1441.78 13.2292H1477.86M1416.64 31.601H1455.36M1416.64 31.601H1377.92M1468.93 36.6173L1455.36 31.601M1468.93 36.6173L1477.86 39.9192M1468.93 36.6173H1477.86M1455.36 31.601H1477.86M1377.92 31.601H1339.19M1377.92 31.601L1366.21 26.7629M1366.21 26.7629H1328.18M1456.67 47.2258L1471.06 52.8413M1456.67 47.2258H1415.73M1456.67 47.2258H1477.86M1477.98 41.822H1477.86M1471.06 52.8413H1429.31M1471.06 52.8413L1477.86 55.4952M1471.06 52.8413H1477.86M1429.31 52.8413H1387.57M1429.31 52.8413L1415.73 47.2258M1415.73 47.2258H1374.78M1252.11 26.7629L1261.75 31.601M1252.11 26.7629H1290.14M1252.11 26.7629H1214.07M1280.17 22.0938L1270.55 17.5852M1280.17 22.0938L1290.14 26.7629M1280.17 22.0938H1317.54M1270.55 17.5852H1307.27M1270.55 17.5852L1261.25 13.2292M1225.14 13.2292H1261.25M1225.14 13.2292L1216.75 9.01744M1225.14 13.2292H1189.03M1290.14 26.7629L1300.47 31.601M1290.14 26.7629H1328.18M1317.54 22.0938L1307.27 17.5852M1317.54 22.0938L1328.18 26.7629M1307.27 17.5852L1297.35 13.2292M1261.25 13.2292H1297.35M1261.25 13.2292L1252.25 9.01744M1328.18 26.7629L1339.19 31.601M1333.46 13.2292H1297.35M1333.46 13.2292L1323.27 9.01744M1297.35 13.2292L1287.76 9.01744M1261.75 31.601H1300.47M1261.75 31.601H1223.03M1311.18 36.6173L1300.47 31.601M1311.18 36.6173L1322.29 41.822M1311.18 36.6173H1350.62M1300.47 31.601H1339.19M1223.03 31.601H1184.3M1223.03 31.601L1214.07 26.7629M1339.19 31.601L1350.62 36.6173M1214.07 26.7629H1176.04M1322.29 41.822L1333.83 47.2258M1322.29 41.822H1362.47M1350.62 36.6173L1362.47 41.822M1362.47 41.822L1374.78 47.2258M1292.89 47.2258L1304.08 52.8413M1292.89 47.2258H1333.83M1292.89 47.2258H1251.94M1333.83 47.2258L1345.82 52.8413M1333.83 47.2258H1374.78M1374.78 47.2258L1387.57 52.8413M1304.08 52.8413H1345.82M1304.08 52.8413H1262.33M1358.29 58.68L1345.82 52.8413M1358.29 58.68L1371.26 64.7559M1358.29 58.68H1400.87M1345.82 52.8413H1387.57M1262.33 52.8413H1220.58M1262.33 52.8413L1251.94 47.2258M1387.57 52.8413L1400.87 58.68M1251.94 47.2258H1210.99M1371.26 64.7559L1384.77 71.0836M1371.26 64.7559H1414.7M1400.87 58.68L1414.7 64.7559M1414.7 64.7559L1429.11 71.0836M1340.43 71.0836L1353.57 77.6796M1340.43 71.0836H1384.77M1340.43 71.0836H1296.09M1384.77 71.0836L1398.85 77.6796M1384.77 71.0836H1429.11M1429.11 71.0836L1444.14 77.6796M1429.11 71.0836H1473.46M1473.46 71.0836H1477.86M1473.46 71.0836L1477.86 72.903M1353.57 77.6796H1398.85M1353.57 77.6796H1308.29M1413.55 84.5607L1398.85 77.6796M1413.55 84.5607L1428.89 91.7457M1413.55 84.5607H1459.81M1398.85 77.6796H1444.14M1308.29 77.6796H1263.01M1308.29 77.6796L1296.09 71.0836M1444.14 77.6796L1459.81 84.5607M1444.14 77.6796H1477.86M1296.09 71.0836H1251.74M1428.89 91.7457L1444.92 99.2563M1428.89 91.7457H1476.17M1459.81 84.5607L1476.17 91.7457M1459.81 84.5607H1477.86M1478.1 77.6796H1477.86M1476.17 91.7457L1477.86 92.4873M1476.17 91.7457H1477.86M1396.57 99.2563L1412.23 107.114M1396.57 99.2563H1444.92M1396.57 99.2563H1348.22M1444.92 99.2563L1461.7 107.114M1444.92 99.2563H1477.86M1478.27 92.6666L1477.86 92.4873M1412.23 107.114H1461.7M1412.23 107.114H1362.76M1461.7 107.114H1477.86M1461.7 107.114L1477.86 114.682M1362.76 107.114H1313.29M1362.76 107.114L1348.22 99.2563M1348.22 99.2563H1299.87M1463.88 133.031H1410.72M1463.88 133.031L1477.86 140.048M1463.88 133.031H1477.86M1478.24 123.973H1477.86M1410.72 133.031H1357.56M1410.72 133.031L1428.33 142.551M1478.01 140.126L1477.86 140.048M1099.97 26.7629L1106.86 31.601M1099.97 26.7629H1138.01M1099.97 26.7629H1061.94M1130.7 22.0938L1123.64 17.5852M1130.7 22.0938L1138.01 26.7629M1130.7 22.0938H1168.07M1123.64 17.5852H1160.36M1123.64 17.5852L1116.82 13.2292M1080.71 13.2292H1116.82M1080.71 13.2292L1078.44 11.6333L1074.71 9.01744M1080.71 13.2292H1044.6M1138.01 26.7629L1145.58 31.601M1138.01 26.7629H1176.04M1168.07 22.0938L1160.36 17.5852M1168.07 22.0938L1176.04 26.7629M1160.36 17.5852L1152.92 13.2292M1116.82 13.2292H1152.92M1116.82 13.2292L1110.22 9.01744M1176.04 26.7629L1184.3 31.601M1189.03 13.2292L1181.24 9.01744M1189.03 13.2292H1152.92M1152.92 13.2292L1152.01 12.6944L1150.2 11.6333L1145.73 9.01744M1106.86 31.601H1145.58M1106.86 31.601H1068.14M1153.44 36.6173L1145.58 31.601M1153.44 36.6173L1161.59 41.822M1153.44 36.6173H1192.87M1145.58 31.601H1184.3M1068.14 31.601H1029.41M1068.14 31.601L1061.94 26.7629M1184.3 31.601L1192.87 36.6173M1061.94 26.7629H1023.9M1161.59 41.822L1170.05 47.2258M1161.59 41.822H1201.76M1192.87 36.6173L1193.97 37.2567L1201.76 41.822M1201.76 41.822L1210.99 47.2258M1129.1 47.2258L1130.08 47.9164L1137.09 52.8413M1129.1 47.2258H1170.05M1129.1 47.2258H1088.15M1170.05 47.2258L1178.84 52.8413M1170.05 47.2258H1210.99M1210.99 47.2258L1220.58 52.8413M1137.09 52.8413H1178.84M1137.09 52.8413H1095.35M1187.98 58.68L1178.84 52.8413M1187.98 58.68L1197.49 64.7559M1187.98 58.68H1230.56M1178.84 52.8413H1220.58M1095.35 52.8413H1053.6M1095.35 52.8413L1088.15 47.2258M1220.58 52.8413L1230.56 58.68M1088.15 47.2258H1047.21M1197.49 64.7559L1207.4 71.0836M1197.49 64.7559H1240.94M1230.56 58.68L1240.94 64.7559M1240.94 64.7559L1251.74 71.0836M1163.06 71.0836L1172.45 77.6796M1163.06 71.0836H1207.4M1163.06 71.0836H1118.72M1207.4 71.0836L1217.73 77.6796M1207.4 71.0836H1251.74M1251.74 71.0836L1263.01 77.6796M1172.45 77.6796H1217.73M1172.45 77.6796H1127.17M1228.5 84.5607L1217.73 77.6796M1228.5 84.5607L1239.75 91.7457M1228.5 84.5607H1274.76M1217.73 77.6796H1263.01M1127.17 77.6796H1081.89M1127.17 77.6796L1118.72 71.0836M1263.01 77.6796L1274.76 84.5607M1118.72 71.0836H1074.37M1239.75 91.7457L1251.51 99.2563M1239.75 91.7457H1287.04M1274.76 84.5607L1287.04 91.7457M1287.04 91.7457L1299.87 99.2563M1203.16 99.2563L1214.34 107.114M1203.16 99.2563H1251.51M1203.16 99.2563H1154.81M1251.51 99.2563L1263.82 107.114M1251.51 99.2563H1299.87M1299.87 99.2563L1313.29 107.114M1214.34 107.114H1263.82M1214.34 107.114H1164.87M1276.7 115.344L1263.82 107.114M1276.7 115.344L1290.21 123.973M1276.7 115.344H1327.34M1263.82 107.114H1313.29M1164.87 107.114H1115.4M1164.87 107.114L1154.81 99.2563M1313.29 107.114L1327.34 115.344M1154.81 99.2563H1106.45M1290.21 123.973L1304.4 133.031M1290.21 123.973H1342.08M1327.34 115.344L1342.08 123.973M1342.08 123.973L1357.56 133.031M1251.24 133.031L1264.79 142.551M1251.24 133.031H1304.4M1251.24 133.031H1198.08M1304.4 133.031L1319.3 142.551M1304.4 133.031H1357.56M1357.56 133.031L1373.82 142.551M1264.79 142.551H1319.3M1264.79 142.551H1210.27M1334.99 152.569L1319.3 142.551M1334.99 152.569L1351.52 163.125M1334.99 152.569H1390.93M1319.3 142.551H1373.82M1210.27 142.551H1155.76M1210.27 142.551L1198.08 133.031M1373.82 142.551L1390.93 152.569M1373.82 142.551H1428.33M1198.08 133.031H1144.92M1351.52 163.125L1368.96 174.264M1351.52 163.125H1408.96M1390.93 152.569L1408.96 163.125M1428.33 142.551H1477.86M1408.96 163.125L1427.98 174.264M1309.93 174.264L1326.68 186.034M1309.93 174.264H1368.96M1309.93 174.264H1250.9M1368.96 174.264L1387.39 186.034M1368.96 174.264H1427.98M1427.98 174.264L1448.09 186.034M1427.98 174.264H1477.86M1326.68 186.034H1387.39M1326.68 186.034H1265.98M1406.89 198.494L1387.39 186.034M1406.89 198.494L1427.57 211.702M1406.89 198.494H1469.37M1387.39 186.034H1448.09M1265.98 186.034H1205.27M1265.98 186.034L1250.9 174.264M1448.09 186.034L1469.37 198.494M1448.09 186.034H1477.86M1250.9 174.264H1191.87M1427.57 211.702L1449.54 225.731M1427.57 211.702H1477.86M1469.37 198.494H1477.86M1469.37 198.494L1477.86 203.463M1383.18 225.731L1404.43 240.658M1383.18 225.731H1449.54M1383.18 225.731H1316.83M1449.54 225.731L1472.91 240.658M1449.54 225.731H1477.86M1404.43 240.658H1472.91M1404.43 240.658H1335.95M1472.91 240.658L1477.86 243.819M1472.91 240.658H1477.86M1335.95 240.658H1267.47M1335.95 240.658L1316.83 225.731M1316.83 225.731H1250.47M1477.2 291.782H1401.45M1477.2 291.782H1477.86M1477.2 291.782L1477.86 292.244M1401.45 291.782H1325.69M1401.45 291.782L1426.48 311.327M947.837 26.7629L949.369 28.5565L949.884 29.1603L951.969 31.601M947.837 26.7629H985.871M947.837 26.7629H909.804M981.219 22.0938L977.835 18.6982L976.727 17.5852M981.219 22.0938L985.281 26.17L985.871 26.7629M981.219 22.0938H1018.59M976.727 17.5852H1013.45M976.727 17.5852L972.386 13.2292M936.279 13.2292H972.386M936.279 13.2292L934.916 11.6333L932.682 9.01744M936.279 13.2292H900.172M985.871 26.7629L987.06 27.9558L990.692 31.601M985.871 26.7629H1023.9M1018.59 22.0938L1013.45 17.5852M1018.59 22.0938L1023.9 26.7629M1013.45 17.5852L1009.72 14.3043L1008.49 13.2292M972.386 13.2292H1008.49M972.386 13.2292L968.19 9.01744M1023.9 26.7629L1029.41 31.601M1044.6 13.2292L1043.92 12.6944L1039.21 9.01744M1044.6 13.2292H1008.49M1008.49 13.2292L1006.68 11.6333L1003.7 9.01744M951.969 31.601H990.692M951.969 31.601H913.246M995.69 36.6173L990.692 31.601M995.69 36.6173L1000.88 41.822M995.69 36.6173H1035.13M990.692 31.601H1029.41M913.246 31.601H874.524M913.246 31.601L909.804 26.7629M1029.41 31.601L1035.13 36.6173M909.804 26.7629H871.77M1000.88 41.822L1004.22 45.1758L1004.9 45.8555L1006.26 47.2258M1000.88 41.822H1041.05M1035.13 36.6173L1041.05 41.822M1041.05 41.822L1047.21 47.2258M965.314 47.2258L970.109 52.8413M965.314 47.2258H1006.26M965.314 47.2258H924.367M1006.26 47.2258L1011.86 52.8413M1006.26 47.2258H1047.21M1047.21 47.2258L1053.6 52.8413M970.109 52.8413H1011.86M970.109 52.8413H928.363M1017.67 58.68L1014.01 55.0038L1013.29 54.2791L1011.86 52.8413M1017.67 58.68L1023.73 64.7559M1017.67 58.68H1060.25M1011.86 52.8413H1053.6M928.363 52.8413H886.618M928.363 52.8413L924.367 47.2258M1053.6 52.8413L1060.25 58.68M924.367 47.2258H883.42M1023.73 64.7559L1030.03 71.0836M1023.73 64.7559H1067.17M1060.25 58.68L1067.17 64.7559M1067.17 64.7559L1074.37 71.0836M985.689 71.0836L988.477 74.3467L989.182 75.1737L991.322 77.6796M985.689 71.0836H1030.03M985.689 71.0836H941.347M1030.03 71.0836L1036.6 77.6796M1030.03 71.0836H1074.37M1074.37 71.0836L1081.89 77.6796M991.322 77.6796H1036.6M991.322 77.6796H946.041M1043.46 84.5607L1036.6 77.6796M1043.46 84.5607L1050.62 91.7457M1043.46 84.5607H1089.72M1036.6 77.6796H1081.89M946.041 77.6796H900.759M946.041 77.6796L944.849 76.0046L941.347 71.0836M1081.89 77.6796L1089.72 84.5607M941.347 71.0836H897.005M1050.62 91.7457L1058.1 99.2563M1050.62 91.7457H1097.9M1089.72 84.5607L1097.9 91.7457M1097.9 91.7457L1106.45 99.2563M1009.75 99.2563L1016.46 107.114M1009.75 99.2563H1058.1M1009.75 99.2563H961.397M1058.1 99.2563L1065.93 107.114M1058.1 99.2563H1106.45M1106.45 99.2563L1115.4 107.114M1016.46 107.114H1065.93M1016.46 107.114H966.99M1074.13 115.344L1065.93 107.114M1074.13 115.344L1082.73 123.973M1074.13 115.344H1124.77M1065.93 107.114H1115.4M966.99 107.114H917.518M966.99 107.114L961.397 99.2563M1115.4 107.114L1124.77 115.344M961.397 99.2563H913.045M1082.73 123.973L1091.75 133.031M1082.73 123.973H1134.6M1124.77 115.344L1134.6 123.973M1134.6 123.973L1144.92 133.031M1038.6 133.031L1046.73 142.551M1038.6 133.031H1091.75M1038.6 133.031H985.435M1091.75 133.031L1101.24 142.551M1091.75 133.031H1144.92M1144.92 133.031L1155.76 142.551M1046.73 142.551H1101.24M1046.73 142.551H992.21M1111.22 152.569L1101.24 142.551M1111.22 152.569L1121.74 163.125M1111.22 152.569H1167.16M1101.24 142.551H1155.76M992.21 142.551H937.695M992.21 142.551L985.435 133.031M1155.76 142.551L1167.16 152.569M985.435 133.031H932.275M1121.74 163.125L1132.84 174.264M1121.74 163.125H1179.18M1167.16 152.569L1179.18 163.125M1179.18 163.125L1191.87 174.264M1073.81 174.264L1083.86 186.034M1073.81 174.264H1132.84M1073.81 174.264H1014.78M1132.84 174.264L1144.57 186.034M1132.84 174.264H1191.87M1191.87 174.264L1205.27 186.034M1083.86 186.034H1144.57M1083.86 186.034H1023.16M1156.98 198.494L1144.57 186.034M1156.98 198.494L1170.14 211.702M1156.98 198.494H1219.46M1144.57 186.034H1205.27M1023.16 186.034H962.453M1023.16 186.034L1014.78 174.264M1205.27 186.034L1219.46 198.494M1014.78 174.264H955.751M1170.14 211.702L1184.12 225.731M1170.14 211.702H1234.5M1219.46 198.494L1234.5 211.702M1234.5 211.702L1250.47 225.731M1117.76 225.731L1130.51 240.658M1117.76 225.731H1184.12M1117.76 225.731H1051.41M1184.12 225.731L1198.99 240.658M1184.12 225.731H1250.47M1250.47 225.731L1267.47 240.658M1130.51 240.658H1198.99M1130.51 240.658H1062.03M1214.85 256.571L1198.99 240.658M1214.85 256.571L1231.79 273.574M1214.85 256.571H1285.59M1198.99 240.658H1267.47M1062.03 240.658H993.553M1062.03 240.658L1051.41 225.731M1267.47 240.658L1285.59 256.571M1051.41 225.731H985.054M1231.79 273.574L1249.93 291.782M1231.79 273.574H1304.96M1285.59 256.571L1304.96 273.574M1304.96 273.574L1325.69 291.782M1174.17 291.782L1190.87 311.327M1174.17 291.782H1249.93M1174.17 291.782H1098.42M1249.93 291.782L1269.41 311.327M1249.93 291.782H1325.69M1325.69 291.782L1347.95 311.327M1190.87 311.327H1269.41M1190.87 311.327H1112.33M1290.36 332.362L1269.41 311.327M1290.36 332.362L1312.99 355.065M1290.36 332.362H1371.9M1269.41 311.327H1347.95M1112.33 311.327H1033.79M1112.33 311.327L1098.42 291.782M1347.95 311.327L1371.9 332.362M1347.95 311.327H1426.48M1098.42 291.782H1022.66M1312.99 355.065L1337.47 379.641M1312.99 355.065H1397.75M1371.9 332.362L1397.75 355.065M1426.48 311.327H1477.86M1397.75 355.065L1425.74 379.641M1397.75 355.065H1477.86M1249.21 379.641L1272.01 406.333M1249.21 379.641H1337.47M1249.21 379.641H1160.95M1337.47 379.641L1364.07 406.333M1337.47 379.641H1425.74M1425.74 379.641L1456.13 406.333M1425.74 379.641H1477.86M1272.01 406.333H1364.07M1272.01 406.333H1179.94M1393.06 435.427L1364.07 406.333M1393.06 435.427L1424.78 467.261M1393.06 435.427H1477.86M1364.07 406.333H1456.13M1179.94 406.333H1087.88M1179.94 406.333L1160.95 379.641M1456.13 406.333H1477.86M1456.13 406.333L1477.86 425.416M1160.95 379.641H1072.68M1424.78 467.261L1459.63 502.243M1424.78 467.261H1477.86M1353.92 502.243L1386.9 540.863M1353.92 502.243H1459.63M1353.92 502.243H1248.2M1459.63 502.243L1477.86 520.539M1459.63 502.243H1477.86M1386.9 540.863H1275.69M1386.9 540.863L1477.86 540.862M1275.69 540.863H1164.48M1275.69 540.863L1248.2 502.243M1248.2 502.243H1142.49M795.702 26.7629L795.871 27.3582L796.041 27.9558L796.213 28.5565L796.384 29.1603L796.905 30.9863L797.079 31.601M795.702 26.7629H833.736M795.702 26.7629H757.668M831.742 22.0938L830.292 18.6982L829.817 17.5852M831.742 22.0938L832.98 24.9926L833.736 26.7629M831.742 22.0938H869.111M829.817 17.5852H866.544M829.817 17.5852L828.416 14.3043L827.956 13.2292M791.849 13.2292L791.697 12.6944L791.095 10.58L790.65 9.01744M791.849 13.2292H827.956M791.849 13.2292H755.742M833.736 26.7629L833.99 27.3582L834.245 27.9558L834.501 28.5565L834.76 29.1603L835.802 31.601M833.736 26.7629H871.77M869.111 22.0938L867.178 18.6982L866.544 17.5852M869.111 22.0938L871.77 26.7629M866.544 17.5852L865.293 15.3886L864.369 13.7656L864.064 13.2292M827.956 13.2292L827.729 12.6944L827.275 11.6333L826.825 10.58L826.602 10.0568L826.158 9.01744M827.956 13.2292H864.064M871.77 26.7629L873.826 30.3748L874.524 31.601M900.172 13.2292L897.914 10.0568L897.174 9.01744M900.172 13.2292H864.064M864.064 13.2292L861.962 9.53597L861.666 9.01744M797.079 31.601H835.802M797.079 31.601H758.357M837.943 36.6173L835.802 31.601M837.943 36.6173L840.166 41.822M837.943 36.6173H877.38M835.802 31.601H874.524M758.357 31.601H719.634M758.357 31.601L757.668 26.7629M874.524 31.601L877.38 36.6173M757.668 26.7629H719.634M840.166 41.822L840.735 43.1536L841.599 45.1758L842.474 47.2258M840.166 41.822H880.344M877.38 36.6173L877.745 37.2567L880.344 41.822M880.344 41.822L880.722 42.4862L881.102 43.1536L881.484 43.8248L883.42 47.2258M801.527 47.2258L803.126 52.8413M801.527 47.2258H842.474M801.527 47.2258H760.581M842.474 47.2258L844.872 52.8413M842.474 47.2258H883.42M883.42 47.2258L885.806 51.4167L886.212 52.1275L886.618 52.8413M803.126 52.8413H844.872M803.126 52.8413H761.38M847.365 58.68L847.683 59.4264L848.004 60.1759L848.326 60.9301L849.96 64.7559M847.365 58.68L846.106 55.7316L845.795 55.0038L845.486 54.2791L844.872 52.8413M847.365 58.68H889.942M844.872 52.8413H886.618M761.38 52.8413H719.634M761.38 52.8413L760.581 47.2258M886.618 52.8413L889.942 58.68M760.581 47.2258H719.634M849.96 64.7559L852.318 70.2783L852.662 71.0836M849.96 64.7559H893.401M889.942 58.68L890.794 60.1759L893.401 64.7559M893.401 64.7559L894.735 67.0982L897.005 71.0836M808.319 71.0836L809.249 74.3467L809.483 75.1737L810.197 77.6796M808.319 71.0836H852.662M808.319 71.0836H763.977M852.662 71.0836L855.478 77.6796M852.662 71.0836H897.005M897.005 71.0836L900.759 77.6796M810.197 77.6796H855.478M810.197 77.6796H764.915M858.416 84.5607L855.478 77.6796M858.416 84.5607L861.485 91.7457M858.416 84.5607H904.678M855.478 77.6796H900.759M764.915 77.6796H719.634M764.915 77.6796L764.677 76.0046L764.208 72.7066L763.977 71.0836M900.759 77.6796L904.678 84.5607M763.977 71.0836H719.634M861.485 91.7457L863.876 97.3473L864.692 99.2563M861.485 91.7457H908.769M904.678 84.5607L908.769 91.7457M908.769 91.7457L910.882 95.4592L913.045 99.2563M816.339 99.2563L818.576 107.114M816.339 99.2563H864.692M816.339 99.2563H767.987M864.692 99.2563L868.047 107.114M864.692 99.2563H913.045M913.045 99.2563L917.518 107.114M818.576 107.114H868.047M818.576 107.114H769.105M871.562 115.344L870.667 113.25L868.047 107.114M871.562 115.344L875.247 123.973M871.562 115.344H922.204M868.047 107.114H917.518M769.105 107.114H719.634M769.105 107.114L767.987 99.2563M917.518 107.114L922.204 115.344M767.987 99.2563H719.634M875.247 123.973L879.114 133.031M875.247 123.973H927.117M922.204 115.344L927.117 123.973M927.117 123.973L932.275 133.031M825.955 133.031L828.665 142.551M825.955 133.031H879.114M825.955 133.031H772.794M879.114 133.031L883.18 142.551M879.114 133.031H932.275M932.275 133.031L937.695 142.551M828.665 142.551H883.18M828.665 142.551H774.149M887.458 152.569L883.18 142.551M887.458 152.569L891.965 163.125M887.458 152.569H943.398M883.18 142.551H937.695M774.149 142.551H719.634M774.149 142.551L772.96 134.195L772.794 133.031M937.695 142.551L943.398 152.569M772.794 133.031H719.634M891.965 163.125L896.722 174.264M891.965 163.125H949.409M943.398 152.569L947.876 160.433L949.409 163.125M949.409 163.125L955.751 174.264M837.692 174.264L841.043 186.034M837.692 174.264H896.722M837.692 174.264H778.664M896.722 174.264L901.748 186.034M896.722 174.264H955.751M955.751 174.264L962.453 186.034M841.043 186.034H901.748M841.043 186.034H780.339M907.068 198.494L901.748 186.034M907.068 198.494L912.708 211.702M907.068 198.494H969.546M901.748 186.034H962.453M780.339 186.034H719.634M780.339 186.034L778.664 174.264M962.453 186.034L969.546 198.494M778.664 174.264H719.634M912.708 211.702L918.699 225.731M912.708 211.702H977.067M969.546 198.494L977.067 211.702M977.067 211.702L985.054 225.731M852.344 225.731L856.593 240.658M852.344 225.731H918.699M852.344 225.731H785.989M918.699 225.731L925.073 240.658M918.699 225.731H985.054M985.054 225.731L993.553 240.658M856.593 240.658H925.073M856.593 240.658H788.114M931.869 256.571L925.073 240.658M931.869 256.571L939.129 273.574M931.869 256.571H1002.61M925.073 240.658H993.553M788.114 240.658H719.634M788.114 240.658L785.989 225.731M993.553 240.658L1002.61 256.571M785.989 225.731H719.634M939.129 273.574L946.904 291.782M939.129 273.574H1012.29M1002.61 256.571L1012.29 273.574M1012.29 273.574L1022.66 291.782M871.147 291.782L876.712 311.327M871.147 291.782H946.904M871.147 291.782H795.391M946.904 291.782L955.25 311.327M946.904 291.782H1022.66M1022.66 291.782L1033.79 311.327M876.712 311.327H955.25M876.712 311.327H798.173M964.233 332.362L955.25 311.327M964.233 332.362L973.927 355.065M964.233 332.362H1045.77M955.25 311.327H1033.79M798.173 311.327H719.634M798.173 311.327L795.391 291.782M1033.79 311.327L1045.77 332.362M795.391 291.782H719.634M973.927 355.065L984.422 379.641M973.927 355.065H1058.69M1045.77 332.362L1058.69 355.065M1058.69 355.065L1072.68 379.641M896.159 379.641L903.758 406.333M896.159 379.641H984.422M896.159 379.641H807.897M984.422 379.641L995.82 406.333M984.422 379.641H1072.68M1072.68 379.641L1087.88 406.333M903.758 406.333H995.82M903.758 406.333H811.696M1008.24 435.427L995.82 406.333M1008.24 435.427L1021.84 467.261M1008.24 435.427H1104.45M995.82 406.333H1087.88M811.696 406.333H719.634M811.696 406.333L807.897 379.641M1087.88 406.333L1104.45 435.427M807.897 379.641H719.634M1021.84 467.261L1036.78 502.243M1021.84 467.261H1122.57M1104.45 435.427L1122.57 467.261M1122.57 467.261L1142.49 502.243M931.062 502.243L942.056 540.863M931.062 502.243H1036.78M931.062 502.243H825.348M1036.78 502.243L1053.27 540.863M1036.78 502.243H1142.49M1142.49 502.243L1164.48 540.863M1053.27 540.863H942.056M1053.27 540.863H1164.48M942.056 540.863H830.845M830.845 540.863H719.634M830.845 540.863L825.348 502.243M825.348 502.243H719.634M643.567 26.7629L643.397 27.3582L643.227 27.9558L643.056 28.5565L642.884 29.1603L642.538 30.3748L642.364 30.9863L642.189 31.601M643.567 26.7629H681.6M643.567 26.7629H605.532M682.265 22.0938L682.907 17.5852M682.265 22.0938L681.6 26.7629M682.265 22.0938H719.634M682.907 17.5852L682.985 17.0326L683.064 16.4822L683.141 15.9342L683.527 13.2292M682.907 17.5852H719.634M647.42 13.2292L647.571 12.6944L648.173 10.58L648.618 9.01744M647.42 13.2292H683.527M647.42 13.2292H611.312M681.6 26.7629L681.515 27.3582L681.431 27.9558L681.345 28.5565L680.912 31.601M681.6 26.7629H719.634M719.634 22.0938V17.5852M719.634 22.0938V26.7629M719.634 17.5852V13.2292M683.527 13.2292H719.634M683.527 13.2292L683.754 11.6333L683.829 11.1055L684.126 9.01744M719.634 26.7629V31.601M755.742 13.2292L755.515 11.6333L755.439 11.1055L755.365 10.58L755.29 10.0568L755.216 9.53597L755.142 9.01744M755.742 13.2292H719.634M719.634 13.2292V9.01744M642.189 31.601H680.912M642.189 31.601H603.467M680.198 36.6173L680.106 37.2567L680.015 37.9001L679.457 41.822M680.198 36.6173L680.912 31.601M680.198 36.6173H719.634M680.912 31.601H719.634M603.467 31.601H564.744M603.467 31.601L603.99 30.3748L604.25 29.7664L604.509 29.1603L604.767 28.5565L605.023 27.9558L605.279 27.3582L605.532 26.7629M719.634 31.601V36.6173M605.532 26.7629H567.499M679.457 41.822L678.688 47.2258M679.457 41.822H719.634M719.634 36.6173V41.822M719.634 41.822V47.2258M637.741 47.2258L636.142 52.8413M637.741 47.2258H678.688M637.741 47.2258H596.795M678.688 47.2258L677.888 52.8413M678.688 47.2258H719.634M719.634 47.2258V52.8413M636.142 52.8413H677.888M636.142 52.8413H594.397M677.057 58.68L677.888 52.8413M677.057 58.68L676.193 64.7559M677.057 58.68H719.634M677.888 52.8413H719.634M594.397 52.8413H552.651M594.397 52.8413L596.795 47.2258M719.634 52.8413V58.68M596.795 47.2258H555.848M676.193 64.7559L675.859 67.0982L675.52 69.4769L675.291 71.0836M676.193 64.7559H719.634M719.634 58.68V64.7559M719.634 64.7559V71.0836M630.949 71.0836L630.02 74.3467L629.785 75.1737L629.071 77.6796M630.949 71.0836H675.291M630.949 71.0836H586.607M675.291 71.0836L675.061 72.7066L674.592 76.0046L674.353 77.6796M675.291 71.0836H719.634M719.634 71.0836V77.6796M629.071 77.6796H674.353M629.071 77.6796H583.79M673.374 84.5607L673.498 83.6841L674.353 77.6796M673.374 84.5607L672.351 91.7457M673.374 84.5607H719.634M674.353 77.6796H719.634M583.79 77.6796H538.509M583.79 77.6796L586.607 71.0836M719.634 77.6796V84.5607M586.607 71.0836H542.264M672.351 91.7457L671.282 99.2563M672.351 91.7457H719.634M719.634 84.5607V91.7457M719.634 91.7457V99.2563M622.929 99.2563L620.692 107.114M622.929 99.2563H671.282M622.929 99.2563H574.576M671.282 99.2563L670.163 107.114M671.282 99.2563H719.634M719.634 99.2563V107.114M620.692 107.114H670.163M620.692 107.114H571.221M668.992 115.344L670.163 107.114M668.992 115.344L667.764 123.973M668.992 115.344H719.634M670.163 107.114H719.634M571.221 107.114H521.75M571.221 107.114L574.576 99.2563M719.634 107.114V115.344M574.576 99.2563H526.223M667.764 123.973L666.474 133.031M667.764 123.973H719.634M719.634 115.344V123.973M719.634 123.973V133.031M613.314 133.031L610.604 142.551M613.314 133.031H666.474M613.314 133.031H560.154M666.474 133.031L665.119 142.551M666.474 133.031H719.634M719.634 133.031V142.551M610.604 142.551H665.119M610.604 142.551H556.089M663.693 152.569L665.119 142.551M663.693 152.569L662.191 163.125M663.693 152.569H719.634M665.119 142.551H719.634M556.089 142.551H501.573M556.089 142.551L560.154 133.031M719.634 142.551V152.569M560.154 133.031H506.994M662.191 163.125L660.605 174.264M662.191 163.125H719.634M719.634 152.569V163.125M719.634 163.125V174.264M601.576 174.264L598.225 186.034M601.576 174.264H660.605M601.576 174.264H542.547M660.605 174.264L658.93 186.034M660.605 174.264H719.634M719.634 174.264V186.034M598.225 186.034H658.93M598.225 186.034H537.52M657.156 198.494L658.93 186.034M657.156 198.494L655.276 211.702M657.156 198.494H719.634M658.93 186.034H719.634M537.52 186.034H476.816M537.52 186.034L542.547 174.264M719.634 186.034V198.494M542.547 174.264H483.517M655.276 211.702L653.279 225.731M655.276 211.702H719.634M719.634 198.494V211.702M719.634 211.702V225.731M586.924 225.731L582.675 240.658M586.924 225.731H653.279M586.924 225.731H520.569M653.279 225.731L651.155 240.658M653.279 225.731H719.634M719.634 225.731V240.658M582.675 240.658H651.155M582.675 240.658H514.195M648.889 256.571L651.155 240.658M648.889 256.571L646.469 273.574M648.889 256.571H719.634M651.155 240.658H719.634M514.195 240.658H445.716M514.195 240.658L520.569 225.731M719.634 240.658V256.571M520.569 225.731H454.214M646.469 273.574L643.877 291.782M646.469 273.574H719.634M719.634 256.571V273.574M719.634 273.574V291.782M568.121 291.782L562.557 311.327M568.121 291.782H643.877M568.121 291.782H492.364M643.877 291.782L641.095 311.327M643.877 291.782H719.634M719.634 291.782V311.327M562.557 311.327H641.095M562.557 311.327H484.018M638.101 332.362L641.095 311.327M638.101 332.362L634.87 355.065M638.101 332.362H719.634M641.095 311.327H719.634M484.018 311.327H405.479M484.018 311.327L492.364 291.782M719.634 311.327V332.362M492.364 291.782H416.607M634.87 355.065L631.371 379.641M634.87 355.065H719.634M719.634 332.362V355.065M719.634 355.065V379.641M543.109 379.641L535.51 406.333M543.109 379.641H631.371M543.109 379.641H454.846M631.371 379.641L627.572 406.333M631.371 379.641H719.634M719.634 379.641V406.333M535.51 406.333H627.572M535.51 406.333H443.448M623.431 435.427L627.572 406.333M623.431 435.427L618.9 467.261M623.431 435.427H719.634M627.572 406.333H719.634M443.448 406.333H351.386M443.448 406.333L454.846 379.641M719.634 406.333V435.427M454.846 379.641H366.584M618.9 467.261L613.92 502.243M618.9 467.261H719.634M719.634 435.427V467.261M719.634 467.261V502.243M508.207 502.243L497.213 540.863M508.207 502.243H613.92M508.207 502.243H402.493M613.92 502.243L608.423 540.863M613.92 502.243H719.634M719.634 502.243V540.863M608.423 540.863H497.213M608.423 540.863H719.634M497.213 540.863H386.001M386.001 540.863H274.79M386.001 540.863L402.493 502.243M402.493 502.243H296.779M491.431 26.7629L489.384 29.1603L487.3 31.601M491.431 26.7629H529.465M491.431 26.7629H453.397M532.788 22.0938L535.997 17.5852M532.788 22.0938L529.465 26.7629M532.788 22.0938H570.157M535.997 17.5852H572.724M535.997 17.5852L538.331 14.3043L539.097 13.2292M502.989 13.2292H539.097M502.989 13.2292L504.353 11.6333L506.586 9.01744M502.989 13.2292H466.882M529.465 26.7629L526.022 31.601M529.465 26.7629H567.499M570.157 22.0938L572.724 17.5852M570.157 22.0938L567.499 26.7629M572.724 17.5852L573.975 15.3886L574.899 13.7656L575.204 13.2292M539.097 13.2292H575.204M539.097 13.2292L541.354 10.0568L542.094 9.01744M567.499 26.7629L565.442 30.3748L564.744 31.601M611.312 13.2292L611.54 12.6944L611.993 11.6333L612.666 10.0568L613.111 9.01744M611.312 13.2292H575.204M575.204 13.2292L575.508 12.6944L576.113 11.6333L577.602 9.01744M487.3 31.601H526.022M487.3 31.601H448.576M522.451 36.6173L522.905 35.9802L523.356 35.3454L525.141 32.8372L526.022 31.601M522.451 36.6173L519.686 40.502L518.747 41.822M522.451 36.6173H561.888M526.022 31.601H564.744M448.576 31.601H409.854M448.576 31.601L452.208 27.9558L453.397 26.7629M564.744 31.601L561.888 36.6173M453.397 26.7629H415.363M518.747 41.822L518.275 42.4862L517.799 43.1536L516.361 45.1758L515.876 45.8555L514.901 47.2258M518.747 41.822H558.924M561.888 36.6173L561.524 37.2567L558.924 41.822M558.924 41.822L558.547 42.4862L558.166 43.1536L557.785 43.8248L555.848 47.2258M473.955 47.2258L469.159 52.8413M473.955 47.2258H514.901M473.955 47.2258H433.008M514.901 47.2258L510.905 52.8413M514.901 47.2258H555.848M555.848 47.2258L552.651 52.8413M469.159 52.8413H510.905M469.159 52.8413H427.413M506.75 58.68L510.905 52.8413M506.75 58.68L502.425 64.7559M506.75 58.68H549.326M510.905 52.8413H552.651M427.413 52.8413H385.667M427.413 52.8413L433.008 47.2258M552.651 52.8413L549.326 58.68M433.008 47.2258H392.061M502.425 64.7559L497.922 71.0836M502.425 64.7559H545.867M549.326 58.68L548.474 60.1759L545.867 64.7559M545.867 64.7559L544.533 67.0982L543.178 69.4769L542.264 71.0836M453.579 71.0836L450.792 74.3467L447.946 77.6796M453.579 71.0836H497.922M453.579 71.0836H409.236M497.922 71.0836L493.227 77.6796M497.922 71.0836H542.264M542.264 71.0836L538.509 77.6796M447.946 77.6796H493.227M447.946 77.6796H402.665M488.33 84.5607L493.227 77.6796M488.33 84.5607L483.216 91.7457M488.33 84.5607H534.591M493.227 77.6796H538.509M402.665 77.6796H357.383M402.665 77.6796L409.236 71.0836M538.509 77.6796L534.591 84.5607M409.236 71.0836H364.894M483.216 91.7457L481.902 93.592L477.872 99.2563M483.216 91.7457H530.5M534.591 84.5607L530.5 91.7457M530.5 91.7457L529.976 92.6666L528.386 95.4592L526.223 99.2563M429.519 99.2563L422.808 107.114M429.519 99.2563H477.872M429.519 99.2563H381.166M477.872 99.2563L472.279 107.114M477.872 99.2563H526.223M526.223 99.2563L521.75 107.114M422.808 107.114H472.279M422.808 107.114H373.337M466.422 115.344L470.115 110.155L472.279 107.114M466.422 115.344L460.28 123.973M466.422 115.344H517.064M472.279 107.114H521.75M373.337 107.114H323.866M373.337 107.114L381.166 99.2563M521.75 107.114L517.064 115.344M381.166 99.2563H332.813M460.28 123.973L453.833 133.031M460.28 123.973H512.151M517.064 115.344L512.151 123.973M512.151 123.973L506.994 133.031M400.673 133.031L392.543 142.551M400.673 133.031H453.833M400.673 133.031H347.513M453.833 133.031L447.058 142.551M453.833 133.031H506.994M506.994 133.031L501.573 142.551M392.543 142.551H447.058M392.543 142.551H338.028M439.929 152.569L447.058 142.551M439.929 152.569L432.416 163.125M439.929 152.569H495.87M447.058 142.551H501.573M338.028 142.551H283.513M338.028 142.551L347.513 133.031M501.573 142.551L495.87 152.569M347.513 133.031H294.353M432.416 163.125L424.488 174.264M432.416 163.125H489.859M495.87 152.569L489.859 163.125M489.859 163.125L483.517 174.264M365.459 174.264L355.406 186.034M365.459 174.264H424.488M365.459 174.264H306.43M424.488 174.264L416.111 186.034M424.488 174.264H483.517M483.517 174.264L476.816 186.034M355.406 186.034H416.111M355.406 186.034H294.702M407.244 198.494L416.111 186.034M407.244 198.494L397.843 211.702M407.244 198.494H469.722M416.111 186.034H476.816M294.702 186.034H233.997M294.702 186.034L306.43 174.264M476.816 186.034L469.722 198.494M306.43 174.264H247.401M397.843 211.702L387.859 225.731M397.843 211.702H462.202M469.722 198.494L462.202 211.702M462.202 211.702L454.214 225.731M321.504 225.731L308.756 240.658M321.504 225.731H387.859M321.504 225.731H255.149M387.859 225.731L377.236 240.658M387.859 225.731H454.214M454.214 225.731L445.716 240.658M308.756 240.658H377.236M308.756 240.658H240.277M365.91 256.571L377.236 240.658M365.91 256.571L353.808 273.574M365.91 256.571H436.655M377.236 240.658H445.716M240.277 240.658H171.797M240.277 240.658L255.149 225.731M445.716 240.658L436.655 256.571M255.149 225.731H188.794M353.808 273.574L340.851 291.782M353.808 273.574H426.974M436.655 256.571L426.974 273.574M426.974 273.574L416.607 291.782M265.094 291.782L248.402 311.327M265.094 291.782H340.851M265.094 291.782H189.337M340.851 291.782L326.94 311.327M340.851 291.782H416.607M416.607 291.782L405.479 311.327M248.402 311.327H326.94M248.402 311.327H169.863M311.969 332.362L326.94 311.327M311.969 332.362L295.812 355.065M311.969 332.362H393.502M326.94 311.327H405.479M169.863 311.327H91.324M169.863 311.327L189.337 291.782M405.479 311.327L393.502 332.362M189.337 291.782H113.58M295.812 355.065L278.321 379.641M295.812 355.065H380.576M393.502 332.362L380.576 355.065M380.576 355.065L366.584 379.641M190.058 379.641L167.262 406.333M190.058 379.641H278.321M190.058 379.641H101.795M278.321 379.641L259.324 406.333M278.321 379.641H366.584M366.584 379.641L351.386 406.333M167.262 406.333H259.324M167.262 406.333H75.1999M238.618 435.427L259.324 406.333M238.618 435.427L215.961 467.261M238.618 435.427H334.821M259.324 406.333H351.386M75.1999 406.333H-16.8622M75.1999 406.333L101.795 379.641M351.386 406.333L334.821 435.427M101.795 379.641H13.5332M215.961 467.261L191.065 502.243M215.961 467.261H316.696M334.821 435.427L316.696 467.261M316.696 467.261L296.779 502.243M85.3514 502.243L52.3686 540.863M85.3514 502.243H191.065M85.3514 502.243H-20.3627M191.065 502.243L163.58 540.863M191.065 502.243H296.779M296.779 502.243L274.79 540.863M163.58 540.863H52.3686M163.58 540.863H274.79M52.3686 540.863L-38.5917 540.862M-20.3627 502.243L-38.5917 520.539M-20.3627 502.243H-38.5917M339.295 26.7629L332.409 31.601M339.295 26.7629H377.329M339.295 26.7629H301.262M383.31 22.0938L389.086 17.5852M383.31 22.0938L377.329 26.7629M383.31 22.0938H420.68M389.086 17.5852H425.814M389.086 17.5852L394.667 13.2292M358.559 13.2292H394.667M358.559 13.2292L360.831 11.6333L364.555 9.01744M358.559 13.2292H322.452M377.329 26.7629L371.131 31.601M377.329 26.7629H415.363M420.68 22.0938L425.814 17.5852M420.68 22.0938L415.363 26.7629M425.814 17.5852L429.55 14.3043L430.775 13.2292M394.667 13.2292L395.351 12.6944L400.063 9.01744M394.667 13.2292H430.775M415.363 26.7629L409.854 31.601M466.882 13.2292L471.078 9.01744M466.882 13.2292H430.775M430.775 13.2292L432.592 11.6333L435.57 9.01744M332.409 31.601H371.131M332.409 31.601H293.687M364.705 36.6173L371.131 31.601M364.705 36.6173L358.038 41.822M364.705 36.6173H404.142M371.131 31.601H409.854M293.687 31.601H254.964M293.687 31.601L301.262 26.7629M409.854 31.601L404.142 36.6173M301.262 26.7629H263.228M358.038 41.822L356.331 43.1536L351.114 47.2258M358.038 41.822H398.215M404.142 36.6173L398.215 41.822M398.215 41.822L392.061 47.2258M310.168 47.2258L309.186 47.9164L302.176 52.8413M310.168 47.2258H351.114M310.168 47.2258H269.221M351.114 47.2258L343.921 52.8413M351.114 47.2258H392.061M392.061 47.2258L391.276 47.9164L385.667 52.8413M302.176 52.8413H343.921M302.176 52.8413H260.43M336.442 58.68L343.921 52.8413M336.442 58.68L328.658 64.7559M336.442 58.68H379.019M343.921 52.8413H385.667M260.43 52.8413H218.684M260.43 52.8413L269.221 47.2258M385.667 52.8413L379.019 58.68M269.221 47.2258H228.275M328.658 64.7559L320.551 71.0836M328.658 64.7559H372.1M379.019 58.68L372.1 64.7559M372.1 64.7559L364.894 71.0836M276.209 71.0836L266.821 77.6796M276.209 71.0836H320.551M276.209 71.0836H231.867M320.551 71.0836L312.102 77.6796M320.551 71.0836H364.894M364.894 71.0836L357.383 77.6796M266.821 77.6796H312.102M266.821 77.6796H221.539M303.287 84.5607L312.102 77.6796M303.287 84.5607L294.081 91.7457M303.287 84.5607H349.547M312.102 77.6796H357.383M221.539 77.6796H176.258M221.539 77.6796L231.867 71.0836M357.383 77.6796L349.547 84.5607M231.867 71.0836H187.524M294.081 91.7457L284.461 99.2563M294.081 91.7457H341.366M349.547 84.5607L341.366 91.7457M341.366 91.7457L332.813 99.2563M236.108 99.2563L224.923 107.114M236.108 99.2563H284.461M236.108 99.2563H187.755M284.461 99.2563L274.394 107.114M284.461 99.2563H332.813M332.813 99.2563L323.866 107.114M224.923 107.114H274.394M224.923 107.114H175.452M263.851 115.344L274.394 107.114M263.851 115.344L252.797 123.973M263.851 115.344H314.494M274.394 107.114H323.866M175.452 107.114H125.981M175.452 107.114L187.755 99.2563M323.866 107.114L314.494 115.344M187.755 99.2563H139.403M252.797 123.973L241.193 133.031M252.797 123.973H304.667M314.494 115.344L304.667 123.973M304.667 123.973L294.353 133.031M188.033 133.031L174.482 142.551M188.033 133.031H241.193M188.033 133.031H134.873M241.193 133.031L228.997 142.551M241.193 133.031H294.353M294.353 133.031L283.513 142.551M174.482 142.551H228.997M174.482 142.551H119.967M216.164 152.569L228.997 142.551M216.164 152.569L202.641 163.125M216.164 152.569H272.105M228.997 142.551H283.513M119.967 142.551H65.4519M119.967 142.551L134.873 133.031M283.513 142.551L272.105 152.569M134.873 133.031H81.7127M202.641 163.125L188.371 174.264M202.641 163.125H260.085M272.105 152.569L260.085 163.125M260.085 163.125L247.401 174.264M129.342 174.264L112.588 186.034M129.342 174.264H188.371M129.342 174.264H70.3133M188.371 174.264L173.292 186.034M188.371 174.264H247.401M247.401 174.264L233.997 186.034M112.588 186.034H173.292M112.588 186.034H51.8829M157.332 198.494L173.292 186.034M157.332 198.494L140.41 211.702M157.332 198.494H219.809M173.292 186.034H233.997M51.8829 186.034H-8.82182M51.8829 186.034L70.3133 174.264M233.997 186.034L219.809 198.494M70.3133 174.264H11.2838M140.41 211.702L122.439 225.731M140.41 211.702H204.769M219.809 198.494L204.769 211.702M204.769 211.702L188.794 225.731M56.0839 225.731L34.8378 240.658M56.0839 225.731H122.439M56.0839 225.731H-10.2711M122.439 225.731L103.317 240.658M122.439 225.731H188.794M188.794 225.731L171.797 240.658M34.8378 240.658H103.317M34.8378 240.658H-33.6419M82.9298 256.571L103.317 240.658M82.9298 256.571L61.1482 273.574M82.9298 256.571H153.675M103.317 240.658H171.797M-33.6419 240.658L-10.2711 225.731M-33.6419 240.658H-38.5917M-33.6419 240.658L-38.5917 243.819M171.797 240.658L153.675 256.571M-10.2711 225.731H-38.5917M61.1482 273.574L37.8233 291.782M61.1482 273.574H134.313M153.675 256.571L134.313 273.574M134.313 273.574L113.58 291.782M-37.9337 291.782H37.8233M-37.9337 291.782H-38.5917M-37.9337 291.782L-38.5917 292.244M37.8233 291.782L12.7845 311.327M37.8233 291.782H113.58M113.58 291.782L91.324 311.327M-14.1626 332.362L12.7845 311.327M-14.1626 332.362H67.3704M-14.1626 332.362H-38.5917M-14.1626 332.362L-38.5917 351.432M12.7845 311.327H91.324M12.7845 311.327H-38.5917M91.324 311.327L67.3704 332.362M67.3704 332.362L41.5188 355.065M41.5188 355.065L13.5332 379.641M41.5188 355.065H-38.5917M13.5332 379.641L-16.8622 406.333M13.5332 379.641H-38.5917M-16.8622 406.333H-38.5917M-16.8622 406.333L-38.5917 425.416M187.16 26.7629L177.519 31.601M187.16 26.7629H225.194M187.16 26.7629H149.126M233.833 22.0938L242.176 17.5852M233.833 22.0938L225.194 26.7629M233.833 22.0938H271.203M242.176 17.5852H278.904M242.176 17.5852L250.237 13.2292M214.13 13.2292H250.237M214.13 13.2292L222.522 9.01744M214.13 13.2292H178.022M225.194 26.7629L216.242 31.601M225.194 26.7629H263.228M271.203 22.0938L278.904 17.5852M271.203 22.0938L263.228 26.7629M278.904 17.5852L286.344 13.2292M250.237 13.2292L251.225 12.6944L258.03 9.01744M250.237 13.2292H286.344M263.228 26.7629L254.964 31.601M322.452 13.2292L329.046 9.01744M322.452 13.2292H286.344M286.344 13.2292L287.257 12.6944L293.538 9.01744M177.519 31.601H216.242M177.519 31.601H138.797M206.959 36.6173L216.242 31.601M206.959 36.6173L197.328 41.822M206.959 36.6173H246.396M216.242 31.601H254.964M138.797 31.601H100.074M138.797 31.601L149.126 26.7629M254.964 31.601L246.396 36.6173M149.126 26.7629H111.092M197.328 41.822L187.328 47.2258M197.328 41.822H237.505M246.396 36.6173L245.302 37.2567L237.505 41.822M237.505 41.822L228.275 47.2258M146.381 47.2258L135.192 52.8413M146.381 47.2258H187.328M146.381 47.2258H105.435M187.328 47.2258L176.938 52.8413M187.328 47.2258H228.275M228.275 47.2258L218.684 52.8413M135.192 52.8413H176.938M135.192 52.8413H93.4463M166.134 58.68L176.938 52.8413M166.134 58.68L154.891 64.7559M166.134 58.68H208.711M176.938 52.8413H218.684M93.4463 52.8413H51.7004M93.4463 52.8413L105.435 47.2258M218.684 52.8413L208.711 58.68M105.435 47.2258H64.4884M154.891 64.7559L143.182 71.0836M154.891 64.7559H198.333M208.711 58.68L198.333 64.7559M198.333 64.7559L187.524 71.0836M98.8392 71.0836L85.695 77.6796M98.8392 71.0836H143.182M98.8392 71.0836H54.4964M143.182 71.0836L130.977 77.6796M143.182 71.0836H187.524M187.524 71.0836L176.258 77.6796M85.695 77.6796H130.977M85.695 77.6796H40.4139M118.243 84.5607L130.977 77.6796M118.243 84.5607L104.948 91.7457M118.243 84.5607H164.505M130.977 77.6796H176.258M40.4139 77.6796H-4.8672M40.4139 77.6796L54.4964 71.0836M176.258 77.6796L164.505 84.5607M54.4964 71.0836H10.1544M104.948 91.7457L91.05 99.2563M104.948 91.7457H152.231M164.505 84.5607L152.231 91.7457M152.231 91.7457L139.403 99.2563M42.6973 99.2563L27.0391 107.114M42.6973 99.2563H91.05M42.6973 99.2563H-5.65465M91.05 99.2563L76.5102 107.114M91.05 99.2563H139.403M139.403 99.2563L125.981 107.114M27.0391 107.114H76.5102M61.2809 115.344L76.5102 107.114M61.2809 115.344L45.3139 123.973M61.2809 115.344H111.924M76.5102 107.114H125.981M125.981 107.114L111.924 115.344M-5.65465 99.2563H-38.5917M45.3139 123.973L28.5524 133.031M45.3139 123.973H97.1845M111.924 115.344L97.1845 123.973M97.1845 123.973L81.7127 133.031M-24.6079 133.031H28.5524M-24.6079 133.031H-38.5917M-24.6079 133.031L-38.5917 140.048M28.5524 133.031L10.9363 142.551M28.5524 133.031H81.7127M81.7127 133.031L65.4519 142.551M-7.60076 152.569L10.9363 142.551M-7.60076 152.569L-27.1338 163.125M-7.60076 152.569H48.3405M-7.60076 152.569H-38.5917M10.9363 142.551H65.4519M10.9363 142.551H-38.5917M65.4519 142.551L48.3405 152.569M-38.7457 140.126L-38.5917 140.048M-27.1338 163.125H30.3097M-27.1338 163.125H-38.5917M-27.1338 163.125L-38.5917 169.317M48.3405 152.569L30.3097 163.125M30.3097 163.125L11.2838 174.264M11.2838 174.264L-8.82182 186.034M11.2838 174.264H-38.5917M-30.1027 198.494L-8.82182 186.034M-30.1027 198.494H-38.5917M-30.1027 198.494L-38.5917 203.463M-8.82182 186.034H-38.5917M35.025 26.7629L22.6296 31.601M35.025 26.7629H73.0587M35.025 26.7629H-3.00955M84.3562 22.0938L95.266 17.5852M84.3562 22.0938L73.0587 26.7629M84.3562 22.0938H121.726M95.266 17.5852H131.993M95.266 17.5852L105.807 13.2292M69.6996 13.2292H105.807M69.6996 13.2292L80.4901 9.01744M69.6996 13.2292H33.5922M73.0587 26.7629L61.352 31.601M73.0587 26.7629H111.092M121.726 22.0938L131.993 17.5852M121.726 22.0938L111.092 26.7629M131.993 17.5852L141.914 13.2292M105.807 13.2292H141.914M105.807 13.2292L115.999 9.01744M111.092 26.7629L100.074 31.601M178.022 13.2292L187.014 9.01744M178.022 13.2292H141.914M141.914 13.2292L151.507 9.01744M22.6296 31.601H61.352M22.6296 31.601H-16.0929M49.2133 36.6173L61.352 31.601M49.2133 36.6173L36.6188 41.822M49.2133 36.6173H88.6497M61.352 31.601H100.074M-16.0929 31.601L-3.00955 26.7629M-16.0929 31.601H-38.5917M100.074 31.601L88.6497 36.6173M-3.00955 26.7629H-38.5917M36.6188 41.822L23.5418 47.2258M36.6188 41.822H76.7961M88.6497 36.6173L76.7961 41.822M76.7961 41.822L64.4884 47.2258M-17.4048 47.2258L-31.7913 52.8413M-17.4048 47.2258H23.5418M-17.4048 47.2258H-38.5917M23.5418 47.2258L9.95454 52.8413M23.5418 47.2258H64.4884M64.4884 47.2258L51.7004 52.8413M-4.17374 58.68L9.95454 52.8413M-4.17374 58.68L-18.8762 64.7559M-4.17374 58.68H38.403M-4.17374 58.68H-38.5917M9.95454 52.8413H-31.7913M9.95454 52.8413H51.7004M-31.7913 52.8413L-38.5917 55.4952M-31.7913 52.8413H-38.5917M51.7004 52.8413L38.403 58.68M-18.8762 64.7559L-34.1884 71.0836M-18.8762 64.7559H24.5654M-18.8762 64.7559H-38.5917M38.403 58.68L24.5654 64.7559M24.5654 64.7559L10.1544 71.0836M-34.1884 71.0836H10.1544M-34.1884 71.0836L-38.5917 72.903M-34.1884 71.0836H-38.5917M10.1544 71.0836L-4.8672 77.6796M-20.5388 84.5607L-4.8672 77.6796M-20.5388 84.5607L-36.903 91.7457M-20.5388 84.5607H-38.5917M-4.8672 77.6796H-38.5917M-38.8286 77.6796H-38.5917M-36.903 91.7457H-38.5917M-36.903 91.7457L-38.5917 92.4873M-39 92.6666L-38.5917 92.4873M-27.7514 22.0938L-14.9168 17.5852M-27.7514 22.0938H-38.5917M-27.7514 22.0938L-38.5917 25.9014M-14.9168 17.5852L-2.51512 13.2292M-14.9168 17.5852H-38.5917M33.5922 13.2292L44.9822 9.01744M33.5922 13.2292H-2.51512M-2.51512 13.2292L9.47433 9.01744M-2.51512 13.2292H-38.5917M1216.75 9.01744H1252.25M1216.75 9.01744H1181.24M1243.56 4.9436L1245.7 5.94966L1252.25 9.01744M1243.56 4.9436H1278.48M1252.25 9.01744H1287.76M1278.48 4.9436L1280.77 5.94966L1281.93 6.45502L1287.76 9.01744M1287.76 9.01744H1323.27M1323.27 9.01744H1358.78M1181.24 9.01744H1145.73M1358.78 9.01744H1394.29M1394.29 9.01744L1383.27 4.9436M1394.29 9.01744H1429.79M1383.27 4.9436H1418.2M1074.71 9.01744H1110.22M1074.71 9.01744H1039.21M1103.84 4.9436L1105.42 5.94966L1106.21 6.45502L1110.22 9.01744M1103.84 4.9436H1138.77M1110.22 9.01744H1145.73M1138.77 4.9436L1145.73 9.01744M1039.21 9.01744H1003.7M932.682 9.01744H968.19M932.682 9.01744H897.174M964.13 4.9436L964.631 5.44508L965.133 5.94966L965.637 6.45502L968.19 9.01744M964.13 4.9436H999.059M968.19 9.01744H1003.7M999.059 4.9436L1003.7 9.01744M897.174 9.01744H861.666M790.65 9.01744H826.158M790.65 9.01744H755.142M824.419 4.9436L826.158 9.01744M824.419 4.9436H859.347M826.158 9.01744H861.666M859.347 4.9436L859.633 5.44508L859.919 5.94966L860.208 6.45502L861.666 9.01744M755.142 9.01744H719.634M648.618 9.01744H684.126M648.618 9.01744H613.111M684.706 4.9436L684.126 9.01744M684.706 4.9436H719.634M684.126 9.01744H719.634M719.634 4.9436V9.01744M613.111 9.01744H577.602M506.586 9.01744H542.094M506.586 9.01744H471.078M544.993 4.9436L544.278 5.94966L542.828 7.98581L542.094 9.01744M544.993 4.9436H579.922M542.094 9.01744H577.602M579.922 4.9436L579.636 5.44508L579.349 5.94966L579.061 6.45502L577.602 9.01744M471.078 9.01744H435.57M364.555 9.01744H400.063M364.555 9.01744H329.046M405.282 4.9436L403.993 5.94966L403.344 6.45502L400.063 9.01744M405.282 4.9436H440.21M400.063 9.01744H435.57M440.21 4.9436L439.638 5.44508L435.57 9.01744M329.046 9.01744H293.538M222.522 9.01744H258.03M222.522 9.01744H187.014M265.569 4.9436L263.707 5.94966L262.771 6.45502L258.03 9.01744M265.569 4.9436H300.497M258.03 9.01744H293.538M300.497 4.9436L299.639 5.44508L293.538 9.01744M187.014 9.01744H151.507M80.4901 9.01744H115.999M80.4901 9.01744H44.9822M125.856 4.9436L115.999 9.01744M125.856 4.9436H160.785M115.999 9.01744H151.507M160.785 4.9436L158.494 5.94966L157.341 6.45502L151.507 9.01744M44.9822 9.01744H9.47433M-13.8553 4.9436L-26.0335 9.01744M-13.8553 4.9436H21.0728M-13.8553 4.9436H-38.5917M-26.0335 9.01744H9.47433M-26.0335 9.01744L-38.5917 13.2189M-26.0335 9.01744H-38.5917M21.0728 4.9436L18.2089 5.94966L9.47433 9.01744M1418.2 4.9436L1421.06 5.94966L1429.79 9.01744M1429.79 9.01744H1465.3M1465.3 9.01744L1477.86 13.2189M1465.3 9.01744H1477.86M1477.86 203.463V198.494M1477.86 203.463V211.702M1477.86 198.494V186.034M1477.86 211.702V214.164V225.731M1477.86 225.731V240.658M1477.86 107.114V99.2563M1477.86 107.114V114.682M1477.86 4.9436V9.01744M1477.86 9.01744V13.2189M1477.86 13.2189L1477.89 13.2292H1477.86M1477.86 13.2189V13.2292M1477.86 13.2292V17.5852M1477.86 17.5852V22.0938M1477.86 22.0938V25.9014M1477.86 25.9014V26.7629M1477.86 26.7629V31.601M1477.86 31.601V36.6173M1477.86 36.6173V39.9192M1477.86 39.9192V41.822M1477.86 41.822V47.2258M1477.86 47.2258V52.8413M1477.86 52.8413V55.4952M1477.86 55.4952V58.68M1477.86 58.68V64.7559M1477.86 64.7559V71.0836M1477.86 71.0836V72.903M1477.86 72.903V77.6796M1477.86 77.6796V84.5607M1477.86 84.5607V91.7457M1477.86 91.7457V92.4873M1477.86 92.4873V99.2563M1477.86 115.344V123.973M1477.86 115.344V114.682M1477.86 123.973V133.031M1477.86 133.031V140.048M1477.86 140.048V142.551M1477.86 142.551V152.569M1477.86 152.569V163.125M1477.86 163.125V169.317M1477.86 169.317V174.264M1477.86 174.264V186.034M1477.86 240.658V243.819M1477.86 243.819V256.571M1477.86 256.571V273.574M1477.86 273.574V291.782M1477.86 291.782V292.244M1477.86 292.244V311.327M1477.86 311.327V332.362M1477.86 332.362V351.432M1477.86 351.432V355.065M1477.86 355.065V379.641M1477.86 379.641V406.333M1477.86 406.333V425.416M1477.86 425.416V435.427M1477.86 435.427V467.261M1477.86 467.261V502.243M1477.86 502.243V520.539M1477.86 520.539V540.862M1477.86 540.862V541H-38.5917V540.862M-38.5917 115.344V123.973M-38.5917 115.344V114.682M-38.5917 114.682V107.114M-38.5917 107.114V99.2563M-38.5917 99.2563V92.4873M-38.5917 92.4873V91.7457M-38.5917 91.7457V84.5607M-38.5917 84.5607V77.6796M-38.5917 77.6796V72.903M-38.5917 72.903V71.0836M-38.5917 71.0836V64.7559M-38.5917 64.7559V58.68M-38.5917 58.68V55.4952M-38.5917 55.4952V52.8413M-38.5917 52.8413V47.2258M-38.5917 47.2258V41.822M-38.5917 41.822V39.9192M-38.5917 39.9192V36.6173M-38.5917 36.6173V31.601M-38.5917 31.601V26.7629M-38.5917 26.7629V25.9014M-38.5917 25.9014V22.0938M-38.5917 22.0938V17.5852M-38.5917 17.5852V13.2292M-38.5917 13.2292H-38.6225L-38.5917 13.2189M-38.5917 13.2292V13.2189M-38.5917 13.2189V9.01744M-38.5917 9.01744V4.9436M-38.5917 540.862V520.539M-38.5917 520.539V502.243M-38.5917 502.243V467.262M-38.5917 467.262V435.427M-38.5917 435.427V425.416M-38.5917 425.416V406.333M-38.5917 406.333V379.641M-38.5917 379.641V355.065M-38.5917 355.065V351.432M-38.5917 351.432V332.362M-38.5917 332.362V311.327M-38.5917 311.327V292.244M-38.5917 292.244V291.782M-38.5917 291.782V273.574M-38.5917 273.574V256.571M-38.5917 256.571V243.819M-38.5917 243.819V240.658M-38.5917 240.658V225.731M-38.5917 225.731V211.702M-38.5917 211.702V203.463M-38.5917 203.463V198.494M-38.5917 198.494V186.034M-38.5917 186.034V174.264M-38.5917 174.264V169.317M-38.5917 169.317V163.125M-38.5917 163.125V152.569M-38.5917 152.569V142.551M-38.5917 142.551V140.048M-38.5917 140.048V133.031M-38.5917 133.031V123.973" stroke="url(#paint0_radial_3308_6104)" stroke-width="1.58049" stroke-miterlimit="10" stroke-linecap="round" stroke-linejoin="round"/>
</g>
<defs>
<radialGradient id="paint0_radial_3308_6104" cx="0" cy="0" r="1" gradientUnits="userSpaceOnUse" gradientTransform="translate(719.634 271) rotate(90) scale(195.744 547.794)">
<stop offset="0.665789" stop-color="white"/>
<stop offset="1" stop-color="white" stop-opacity="0"/>
</radialGradient>
</defs>
</svg>
