<svg width="832" height="145" viewBox="0 0 832 145" fill="none" xmlns="http://www.w3.org/2000/svg">
<mask id="mask0_3308_6046" style="mask-type:alpha" maskUnits="userSpaceOnUse" x="0" y="-267" width="832" height="412">
<rect x="0.948242" y="-267" width="830.104" height="412" rx="27.4667" fill="url(#paint0_radial_3308_6046)"/>
</mask>
<g mask="url(#mask0_3308_6046)">
<path d="M417.981 -262.954H462.596L440.289 -59.228L417.981 144.498L395.673 -59.228L373.365 -262.954H417.981Z" fill="#EE4FFB" fill-opacity="0.1"/>
<path d="M281.052 -238.81L322.977 -254.069L371.693 -54.9996L420.409 144.07L329.768 -39.7402L239.127 -223.55L281.052 -238.81Z" fill="#EE4FFB" fill-opacity="0.1"/>
<path d="M160.639 -169.289L194.816 -197.968L308.68 -27.5653L422.544 142.837L274.502 1.1131L126.461 -140.611L160.639 -169.289Z" fill="#EE4FFB" fill-opacity="0.1"/>
<path d="M71.2649 -62.7777L93.5727 -101.416L258.851 19.7663L424.129 140.949L236.543 58.4045L48.957 -24.1394L71.2649 -62.7777Z" fill="#EE4FFB" fill-opacity="0.1"/>
<path d="M23.7103 67.8783L31.4577 23.9404L228.215 81.286L424.973 138.632L220.468 125.224L15.9629 111.816L23.7103 67.8783Z" fill="#EE4FFB" fill-opacity="0.1"/>
<path d="M812.252 67.8783L804.505 23.9404L607.748 81.286L410.99 138.632L615.495 125.224L820 111.816L812.252 67.8783Z" fill="#EE4FFB" fill-opacity="0.1"/>
<path d="M764.698 -62.7777L742.39 -101.416L577.112 19.7663L411.834 140.949L599.42 58.4045L787.006 -24.1394L764.698 -62.7777Z" fill="#EE4FFB" fill-opacity="0.1"/>
<path d="M675.324 -169.289L641.147 -197.968L527.283 -27.5653L413.419 142.837L561.46 1.1131L709.502 -140.611L675.324 -169.289Z" fill="#EE4FFB" fill-opacity="0.1"/>
<path d="M554.911 -238.81L512.986 -254.069L464.27 -54.9996L415.554 144.07L506.195 -39.7402L596.836 -223.55L554.911 -238.81Z" fill="#EE4FFB" fill-opacity="0.1"/>
</g>
<defs>
<radialGradient id="paint0_radial_3308_6046" cx="0" cy="0" r="1" gradientUnits="userSpaceOnUse" gradientTransform="translate(416 31.3185) rotate(90) scale(113.681 414.72)">
<stop stop-color="#D9D9D9"/>
<stop offset="1" stop-color="#737373" stop-opacity="0"/>
</radialGradient>
</defs>
</svg>
