<svg width="703" height="277" viewBox="0 0 703 277" fill="none" xmlns="http://www.w3.org/2000/svg">
<mask id="path-1-outside-1_4173_16918" maskUnits="userSpaceOnUse" x="32" y="18" width="600" height="259" fill="black">
<rect fill="white" x="32" y="18" width="600" height="259"/>
<path d="M85.449 126.878C54.5812 126.878 36.002 106.397 36.002 74.7974C36.002 43.1982 55.1664 22.7171 86.912 22.7171C112.074 22.7171 129.63 38.9557 131.531 61.7774H104.613C102.712 51.9757 95.9821 44.9537 85.449 44.9537C71.4049 44.9537 63.5051 57.2423 63.5051 74.7974C63.5051 92.3526 71.4049 104.641 85.449 104.641C95.9821 104.641 102.712 97.6192 104.613 87.8175H131.531C129.63 110.639 111.489 126.878 85.449 126.878ZM240.868 74.7974C240.868 104.495 219.948 126.878 189.08 126.878C158.213 126.878 137.293 104.495 137.293 74.7974C137.293 45.1 158.213 22.7171 189.08 22.7171C219.948 22.7171 240.868 45.1 240.868 74.7974ZM164.796 74.7974C164.796 91.9137 174.159 104.641 189.08 104.641C204.002 104.641 213.365 91.9137 213.365 74.7974C213.365 57.6812 204.002 44.9537 189.08 44.9537C174.159 44.9537 164.796 57.6812 164.796 74.7974ZM252.684 126V23.5949H288.379L312.664 93.523L335.632 23.5949H370.596V126H344.995V63.9718L322.319 126H300.96L278.285 63.9718V126H252.684ZM386.69 126V23.5949H413.608V126H386.69ZM456.172 126H429.692V23.5949H454.123L491.428 80.2103V23.5949H517.907V126H493.476L456.172 69.3846V126ZM578.749 126.878C549.198 126.878 529.741 106.397 529.741 74.7974C529.741 43.1982 549.198 22.7171 581.529 22.7171C607.422 22.7171 625.124 38.9557 627.172 61.7774H600.693C598.645 51.9757 591.769 44.9537 580.797 44.9537C566.022 44.9537 557.244 57.2423 557.244 74.7974C557.244 92.3526 565.436 104.641 581.09 104.641C588.99 104.641 599.669 101.276 602.887 88.9879V88.8416H580.212V68.3606H627.611V126H609.763L606.837 115.174C601.132 122.196 591.769 126.878 578.749 126.878ZM145.797 238.206L171.983 238.791C172.568 246.545 178.859 252.25 189.831 252.25C198.023 252.25 204.168 249.032 204.168 242.449C204.168 236.158 198.023 234.842 180.029 231.184C162.328 227.527 148.137 222.114 148.137 200.755C148.137 182.176 163.644 168.717 188.075 168.717C212.945 168.717 228.891 181.298 228.891 201.487H202.705C202.119 194.611 197.145 189.491 188.075 189.491C180.761 189.491 175.202 192.417 175.202 198.707C175.202 204.852 180.907 206.168 198.755 209.679C216.749 213.19 231.378 218.31 231.232 239.377C231.085 259.273 214.701 272.878 189.392 272.878C162.913 272.878 145.797 259.419 145.797 238.206ZM341.945 220.797C341.945 250.495 321.025 272.878 290.157 272.878C259.289 272.878 238.369 250.495 238.369 220.797C238.369 191.1 259.289 168.717 290.157 168.717C321.025 168.717 341.945 191.1 341.945 220.797ZM265.872 220.797C265.872 237.914 275.235 250.641 290.157 250.641C305.079 250.641 314.442 237.914 314.442 220.797C314.442 203.681 305.079 190.954 290.157 190.954C275.235 190.954 265.872 203.681 265.872 220.797ZM453.093 220.797C453.093 250.495 432.173 272.878 401.305 272.878C370.438 272.878 349.518 250.495 349.518 220.797C349.518 191.1 370.438 168.717 401.305 168.717C432.173 168.717 453.093 191.1 453.093 220.797ZM377.021 220.797C377.021 237.914 386.383 250.641 401.305 250.641C416.227 250.641 425.59 237.914 425.59 220.797C425.59 203.681 416.227 190.954 401.305 190.954C386.383 190.954 377.021 203.681 377.021 220.797ZM491.388 272H464.909V169.595H489.339L526.644 226.21V169.595H553.123V272H528.692L491.388 215.385V272Z"/>
</mask>
<path d="M85.449 126.878C54.5812 126.878 36.002 106.397 36.002 74.7974C36.002 43.1982 55.1664 22.7171 86.912 22.7171C112.074 22.7171 129.63 38.9557 131.531 61.7774H104.613C102.712 51.9757 95.9821 44.9537 85.449 44.9537C71.4049 44.9537 63.5051 57.2423 63.5051 74.7974C63.5051 92.3526 71.4049 104.641 85.449 104.641C95.9821 104.641 102.712 97.6192 104.613 87.8175H131.531C129.63 110.639 111.489 126.878 85.449 126.878ZM240.868 74.7974C240.868 104.495 219.948 126.878 189.08 126.878C158.213 126.878 137.293 104.495 137.293 74.7974C137.293 45.1 158.213 22.7171 189.08 22.7171C219.948 22.7171 240.868 45.1 240.868 74.7974ZM164.796 74.7974C164.796 91.9137 174.159 104.641 189.08 104.641C204.002 104.641 213.365 91.9137 213.365 74.7974C213.365 57.6812 204.002 44.9537 189.08 44.9537C174.159 44.9537 164.796 57.6812 164.796 74.7974ZM252.684 126V23.5949H288.379L312.664 93.523L335.632 23.5949H370.596V126H344.995V63.9718L322.319 126H300.96L278.285 63.9718V126H252.684ZM386.69 126V23.5949H413.608V126H386.69ZM456.172 126H429.692V23.5949H454.123L491.428 80.2103V23.5949H517.907V126H493.476L456.172 69.3846V126ZM578.749 126.878C549.198 126.878 529.741 106.397 529.741 74.7974C529.741 43.1982 549.198 22.7171 581.529 22.7171C607.422 22.7171 625.124 38.9557 627.172 61.7774H600.693C598.645 51.9757 591.769 44.9537 580.797 44.9537C566.022 44.9537 557.244 57.2423 557.244 74.7974C557.244 92.3526 565.436 104.641 581.09 104.641C588.99 104.641 599.669 101.276 602.887 88.9879V88.8416H580.212V68.3606H627.611V126H609.763L606.837 115.174C601.132 122.196 591.769 126.878 578.749 126.878ZM145.797 238.206L171.983 238.791C172.568 246.545 178.859 252.25 189.831 252.25C198.023 252.25 204.168 249.032 204.168 242.449C204.168 236.158 198.023 234.842 180.029 231.184C162.328 227.527 148.137 222.114 148.137 200.755C148.137 182.176 163.644 168.717 188.075 168.717C212.945 168.717 228.891 181.298 228.891 201.487H202.705C202.119 194.611 197.145 189.491 188.075 189.491C180.761 189.491 175.202 192.417 175.202 198.707C175.202 204.852 180.907 206.168 198.755 209.679C216.749 213.19 231.378 218.31 231.232 239.377C231.085 259.273 214.701 272.878 189.392 272.878C162.913 272.878 145.797 259.419 145.797 238.206ZM341.945 220.797C341.945 250.495 321.025 272.878 290.157 272.878C259.289 272.878 238.369 250.495 238.369 220.797C238.369 191.1 259.289 168.717 290.157 168.717C321.025 168.717 341.945 191.1 341.945 220.797ZM265.872 220.797C265.872 237.914 275.235 250.641 290.157 250.641C305.079 250.641 314.442 237.914 314.442 220.797C314.442 203.681 305.079 190.954 290.157 190.954C275.235 190.954 265.872 203.681 265.872 220.797ZM453.093 220.797C453.093 250.495 432.173 272.878 401.305 272.878C370.438 272.878 349.518 250.495 349.518 220.797C349.518 191.1 370.438 168.717 401.305 168.717C432.173 168.717 453.093 191.1 453.093 220.797ZM377.021 220.797C377.021 237.914 386.383 250.641 401.305 250.641C416.227 250.641 425.59 237.914 425.59 220.797C425.59 203.681 416.227 190.954 401.305 190.954C386.383 190.954 377.021 203.681 377.021 220.797ZM491.388 272H464.909V169.595H489.339L526.644 226.21V169.595H553.123V272H528.692L491.388 215.385V272Z" fill="url(#paint0_linear_4173_16918)"/>
<path d="M131.531 61.7774V65.6123H135.699L135.353 61.4589L131.531 61.7774ZM104.613 61.7774L100.849 62.5078L101.451 65.6123H104.613V61.7774ZM104.613 87.8175V83.9826H101.451L100.849 87.0871L104.613 87.8175ZM131.531 87.8175L135.353 88.136L135.699 83.9826H131.531V87.8175ZM85.4491 126.878V123.043C70.896 123.043 59.6121 118.24 51.9478 110.064C44.2549 101.859 39.837 89.8559 39.837 74.7974H36.002H32.1671C32.1671 91.3383 37.0387 105.376 46.3524 115.31C55.6947 125.275 69.1343 130.713 85.4491 130.713V126.878ZM36.002 74.7974H39.837C39.837 59.7713 44.3815 47.7825 52.311 39.5716C60.2237 31.378 71.8865 26.5521 86.912 26.5521V22.7171V18.8822C70.1919 18.8822 56.3997 24.2967 46.7938 34.2435C37.2047 44.1729 32.1671 58.2243 32.1671 74.7974H36.002ZM86.912 22.7171V26.5521C110.198 26.5521 125.983 41.3777 127.71 62.0958L131.531 61.7774L135.353 61.4589C133.276 36.5337 113.95 18.8822 86.912 18.8822V22.7171ZM131.531 61.7774V57.9424H104.613V61.7774V65.6123H131.531V61.7774ZM104.613 61.7774L108.378 61.0469C107.301 55.4974 104.811 50.5022 100.866 46.8689C96.8814 43.1996 91.6227 41.1187 85.4491 41.1187V44.9537V48.7886C89.8085 48.7886 93.1811 50.2188 95.6701 52.5109C98.1983 54.8391 100.024 58.2557 100.849 62.5078L104.613 61.7774ZM85.4491 44.9537V41.1187C77.1465 41.1187 70.5091 44.8244 66.0811 51.0757C61.7515 57.1881 59.6701 65.5086 59.6701 74.7974H63.5051H67.34C67.34 66.5312 69.2086 59.9298 72.3399 55.509C75.3729 51.2273 79.7074 48.7886 85.4491 48.7886V44.9537ZM63.5051 74.7974H59.6701C59.6701 84.0863 61.7515 92.4068 66.0811 98.5192C70.5091 104.771 77.1465 108.476 85.4491 108.476V104.641V100.806C79.7074 100.806 75.3729 98.3676 72.3399 94.0859C69.2086 89.6651 67.34 83.0637 67.34 74.7974H63.5051ZM85.4491 104.641V108.476C91.6227 108.476 96.8814 106.395 100.866 102.726C104.811 99.0927 107.301 94.0975 108.378 88.548L104.613 87.8175L100.849 87.0871C100.024 91.3391 98.1983 94.7558 95.6701 97.084C93.1811 99.3761 89.8085 100.806 85.4491 100.806V104.641ZM104.613 87.8175V91.6525H131.531V87.8175V83.9826H104.613V87.8175ZM131.531 87.8175L127.71 87.4991C125.992 108.109 109.728 123.043 85.4491 123.043V126.878V130.713C113.251 130.713 133.267 113.169 135.353 88.136L131.531 87.8175ZM240.868 74.7974H237.033C237.033 102.464 217.745 123.043 189.08 123.043V126.878V130.713C222.152 130.713 244.703 106.526 244.703 74.7974H240.868ZM189.08 126.878V123.043C160.416 123.043 141.128 102.464 141.128 74.7974H137.293H133.458C133.458 106.526 156.009 130.713 189.08 130.713V126.878ZM137.293 74.7974H141.128C141.128 47.1312 160.416 26.5521 189.08 26.5521V22.7171V18.8822C156.009 18.8822 133.458 43.0687 133.458 74.7974H137.293ZM189.08 22.7171V26.5521C217.745 26.5521 237.033 47.1312 237.033 74.7974H240.868H244.703C244.703 43.0687 222.152 18.8822 189.08 18.8822V22.7171ZM164.796 74.7974H160.961C160.961 84.019 163.481 92.3758 168.334 98.5159C173.248 104.734 180.417 108.476 189.08 108.476V104.641V100.806C182.822 100.806 177.848 98.1848 174.351 93.76C170.792 89.2572 168.631 82.6922 168.631 74.7974H164.796ZM189.08 104.641V108.476C197.744 108.476 204.913 104.734 209.827 98.5159C214.68 92.3758 217.2 84.019 217.2 74.7974H213.365H209.53C209.53 82.6922 207.369 89.2572 203.81 93.76C200.313 98.1848 195.339 100.806 189.08 100.806V104.641ZM213.365 74.7974H217.2C217.2 65.5759 214.68 57.2191 209.827 51.079C204.913 44.861 197.744 41.1187 189.08 41.1187V44.9537V48.7886C195.339 48.7886 200.313 51.4101 203.81 55.8349C207.369 60.3377 209.53 66.9027 209.53 74.7974H213.365ZM189.08 44.9537V41.1187C180.417 41.1187 173.248 44.861 168.334 51.079C163.481 57.2191 160.961 65.5759 160.961 74.7974H164.796H168.631C168.631 66.9027 170.792 60.3377 174.351 55.8349C177.848 51.4101 182.822 48.7886 189.08 48.7886V44.9537ZM252.684 126H248.849V129.835H252.684V126ZM252.684 23.5949V19.7599H248.849V23.5949H252.684ZM288.379 23.5949L292.002 22.3368L291.107 19.7599H288.379V23.5949ZM312.664 93.5229L309.041 94.7811L312.765 105.504L316.307 94.7197L312.664 93.5229ZM335.632 23.5949V19.7599H332.855L331.988 22.3982L335.632 23.5949ZM370.596 23.5949H374.431V19.7599H370.596V23.5949ZM370.596 126V129.835H374.431V126H370.596ZM344.995 126H341.16V129.835H344.995V126ZM344.995 63.9718H348.829L341.393 62.6551L344.995 63.9718ZM322.319 126V129.835H325L325.921 127.317L322.319 126ZM300.96 126L297.359 127.317L298.279 129.835H300.96V126ZM278.285 63.9718L281.887 62.6551L274.45 63.9718H278.285ZM278.285 126V129.835H282.12V126H278.285ZM252.684 126H256.519V23.5949H252.684H248.849V126H252.684ZM252.684 23.5949V27.4298H288.379V23.5949V19.7599H252.684V23.5949ZM288.379 23.5949L284.756 24.853L309.041 94.7811L312.664 93.5229L316.286 92.2649L292.002 22.3368L288.379 23.5949ZM312.664 93.5229L316.307 94.7197L339.275 24.7916L335.632 23.5949L331.988 22.3982L309.02 92.3262L312.664 93.5229ZM335.632 23.5949V27.4298H370.596V23.5949V19.7599H335.632V23.5949ZM370.596 23.5949H366.761V126H370.596H374.431V23.5949H370.596ZM370.596 126V122.165H344.995V126V129.835H370.596V126ZM344.995 126H348.829V63.9718H344.995H341.16V126H344.995ZM344.995 63.9718L341.393 62.6551L318.717 124.683L322.319 126L325.921 127.317L348.596 65.2885L344.995 63.9718ZM322.319 126V122.165H300.96V126V129.835H322.319V126ZM300.96 126L304.562 124.683L281.887 62.6551L278.285 63.9718L274.683 65.2885L297.359 127.317L300.96 126ZM278.285 63.9718H274.45V126H278.285H282.12V63.9718H278.285ZM278.285 126V122.165H252.684V126V129.835H278.285V126ZM386.69 126H382.855V129.835H386.69V126ZM386.69 23.5949V19.7599H382.855V23.5949H386.69ZM413.608 23.5949H417.443V19.7599H413.608V23.5949ZM413.608 126V129.835H417.443V126H413.608ZM386.69 126H390.525V23.5949H386.69H382.855V126H386.69ZM386.69 23.5949V27.4298H413.608V23.5949V19.7599H386.69V23.5949ZM413.608 23.5949H409.773V126H413.608H417.443V23.5949H413.608ZM413.608 126V122.165H386.69V126V129.835H413.608V126ZM456.172 126V129.835H460.006V126H456.172ZM429.692 126H425.858V129.835H429.692V126ZM429.692 23.5949V19.7599H425.858V23.5949H429.692ZM454.123 23.5949L457.326 21.4849L456.189 19.7599H454.123V23.5949ZM491.428 80.2103L488.226 82.3203L495.263 93.0004V80.2103H491.428ZM491.428 23.5949V19.7599H487.593V23.5949H491.428ZM517.907 23.5949H521.742V19.7599H517.907V23.5949ZM517.907 126V129.835H521.742V126H517.907ZM493.476 126L490.274 128.11L491.411 129.835H493.476V126ZM456.172 69.3846L459.374 67.2746L452.337 56.5945V69.3846H456.172ZM456.172 126V122.165H429.692V126V129.835H456.172V126ZM429.692 126H433.527V23.5949H429.692H425.858V126H429.692ZM429.692 23.5949V27.4298H454.123V23.5949V19.7599H429.692V23.5949ZM454.123 23.5949L450.921 25.7049L488.226 82.3203L491.428 80.2103L494.63 78.1003L457.326 21.4849L454.123 23.5949ZM491.428 80.2103H495.263V23.5949H491.428H487.593V80.2103H491.428ZM491.428 23.5949V27.4298H517.907V23.5949V19.7599H491.428V23.5949ZM517.907 23.5949H514.072V126H517.907H521.742V23.5949H517.907ZM517.907 126V122.165H493.476V126V129.835H517.907V126ZM493.476 126L496.678 123.89L459.374 67.2746L456.172 69.3846L452.969 71.4946L490.274 128.11L493.476 126ZM456.172 69.3846H452.337V126H456.172H460.006V69.3846H456.172ZM627.172 61.7774V65.6123H631.367L630.992 61.4346L627.172 61.7774ZM600.693 61.7774L596.939 62.5618L597.577 65.6123H600.693V61.7774ZM602.887 88.9879L606.597 89.9595L606.722 89.4817V88.9879H602.887ZM602.887 88.8416H606.722V85.0066H602.887V88.8416ZM580.212 88.8416H576.377V92.6765H580.212V88.8416ZM580.212 68.3606V64.5256H576.377V68.3606H580.212ZM627.611 68.3606H631.446V64.5256H627.611V68.3606ZM627.611 126V129.835H631.446V126H627.611ZM609.763 126L606.061 127.001L606.827 129.835H609.763V126ZM606.837 115.174L610.539 114.174L608.585 106.942L603.861 112.756L606.837 115.174ZM578.749 126.878V123.043C564.894 123.043 553.699 118.265 545.953 110.055C538.187 101.825 533.576 89.8096 533.576 74.7974H529.741H525.906C525.906 91.3846 531.024 105.409 540.374 115.319C549.744 125.25 563.052 130.713 578.749 130.713V126.878ZM529.741 74.7974H533.576C533.576 59.7877 538.183 47.8073 546.247 39.5943C554.301 31.3916 566.19 26.5521 581.529 26.5521V22.7171V18.8822C564.537 18.8822 550.532 24.2832 540.774 34.2208C531.027 44.1481 525.906 58.208 525.906 74.7974H529.741ZM581.529 22.7171V26.5521C605.598 26.5521 621.496 41.4321 623.352 62.1202L627.172 61.7774L630.992 61.4346C628.752 36.4792 609.247 18.8822 581.529 18.8822V22.7171ZM627.172 61.7774V57.9424H600.693V61.7774V65.6123H627.172V61.7774ZM600.693 61.7774L604.447 60.993C603.287 55.4409 600.709 50.4487 596.642 46.8262C592.54 43.1723 587.15 41.1187 580.797 41.1187V44.9537V48.7886C585.417 48.7886 588.95 50.2461 591.541 52.5536C594.167 54.8926 596.051 58.3122 596.939 62.5618L600.693 61.7774ZM580.797 44.9537V41.1187C572.224 41.1187 565.208 44.7402 560.437 50.9577C555.747 57.0704 553.409 65.4288 553.409 74.7974H557.244H561.079C561.079 66.6109 563.13 60.0474 566.522 55.627C569.834 51.3114 574.595 48.7886 580.797 48.7886V44.9537ZM557.244 74.7974H553.409C553.409 84.1091 555.574 92.4825 560.244 98.6238C565.017 104.9 572.137 108.476 581.09 108.476V104.641V100.806C574.389 100.806 569.586 98.238 566.349 93.9812C563.01 89.5895 561.079 83.0409 561.079 74.7974H557.244ZM581.09 104.641V108.476C589.844 108.476 602.746 104.664 606.597 89.9595L602.887 88.9879L599.178 88.0162C596.592 97.8888 588.135 100.806 581.09 100.806V104.641ZM602.887 88.9879H606.722V88.8416H602.887H599.052V88.9879H602.887ZM602.887 88.8416V85.0066H580.212V88.8416V92.6765H602.887V88.8416ZM580.212 88.8416H584.047V68.3606H580.212H576.377V88.8416H580.212ZM580.212 68.3606V72.1955H627.611V68.3606V64.5256H580.212V68.3606ZM627.611 68.3606H623.776V126H627.611H631.446V68.3606H627.611ZM627.611 126V122.165H609.763V126V129.835H627.611V126ZM609.763 126L613.465 124.999L610.539 114.174L606.837 115.174L603.135 116.175L606.061 127.001L609.763 126ZM606.837 115.174L603.861 112.756C598.994 118.747 590.801 123.043 578.749 123.043V126.878V130.713C592.738 130.713 603.27 125.646 609.814 117.593L606.837 115.174ZM145.797 238.206L145.882 234.372L141.962 234.285V238.206H145.797ZM171.983 238.791L175.807 238.503L175.545 235.035L172.069 234.957L171.983 238.791ZM180.029 231.184L179.253 234.94L179.265 234.942L180.029 231.184ZM228.891 201.487V205.322H232.726V201.487H228.891ZM202.705 201.487L198.883 201.812L199.182 205.322H202.705V201.487ZM198.755 209.679L198.014 213.442L198.02 213.443L198.755 209.679ZM231.232 239.377L235.067 239.405L235.067 239.403L231.232 239.377ZM145.797 238.206L145.711 242.04L171.897 242.625L171.983 238.791L172.069 234.957L145.882 234.372L145.797 238.206ZM171.983 238.791L168.159 239.08C168.528 243.973 170.735 248.341 174.627 251.432C178.476 254.488 183.698 256.085 189.831 256.085V252.25V248.415C184.992 248.415 181.582 247.16 179.396 245.425C177.255 243.725 176.023 241.363 175.807 238.503L171.983 238.791ZM189.831 252.25V256.085C194.347 256.085 198.737 255.211 202.129 253.055C205.703 250.782 208.002 247.158 208.002 242.449H204.168H200.333C200.333 244.323 199.56 245.599 198.014 246.582C196.286 247.681 193.507 248.415 189.831 248.415V252.25ZM204.168 242.449H208.002C208.002 240.193 207.429 238.027 205.914 236.145C204.485 234.369 202.489 233.19 200.317 232.288C196.1 230.535 189.6 229.216 180.793 227.426L180.029 231.184L179.265 234.942C188.453 236.81 194.022 237.977 197.375 239.371C198.988 240.041 199.653 240.599 199.939 240.953C200.138 241.202 200.333 241.559 200.333 242.449H204.168ZM180.029 231.184L180.805 227.429C171.968 225.603 164.793 223.464 159.8 219.581C155.111 215.934 151.972 210.438 151.972 200.755H148.137H144.302C144.302 212.432 148.258 220.321 155.091 225.635C161.618 230.712 170.389 233.108 179.253 234.94L180.029 231.184ZM148.137 200.755H151.972C151.972 192.617 155.332 185.695 161.377 180.734C167.478 175.728 176.54 172.552 188.075 172.552V168.717V164.882C175.179 164.882 164.273 168.436 156.512 174.804C148.696 181.218 144.302 190.314 144.302 200.755H148.137ZM188.075 168.717V172.552C199.906 172.552 209.182 175.547 215.416 180.527C221.556 185.433 225.056 192.501 225.056 201.487H228.891H232.726C232.726 190.284 228.253 180.967 220.203 174.535C212.246 168.178 201.114 164.882 188.075 164.882V168.717ZM228.891 201.487V197.652H202.705V201.487V205.322H228.891V201.487ZM202.705 201.487L206.526 201.162C206.16 196.868 204.389 192.899 201.094 190.022C197.807 187.152 193.337 185.656 188.075 185.656V189.491V193.326C191.884 193.326 194.436 194.39 196.05 195.799C197.655 197.201 198.664 199.23 198.883 201.812L202.705 201.487ZM188.075 189.491V185.656C183.99 185.656 179.94 186.46 176.786 188.537C173.441 190.741 171.367 194.229 171.367 198.707H175.202H179.036C179.036 196.894 179.742 195.775 181.005 194.943C182.459 193.985 184.846 193.326 188.075 193.326V189.491ZM175.202 198.707H171.367C171.367 200.884 171.891 203.012 173.349 204.88C174.733 206.652 176.678 207.825 178.8 208.716C182.909 210.442 189.274 211.723 198.014 213.442L198.755 209.679L199.495 205.916C190.387 204.125 184.976 202.992 181.77 201.645C180.235 201 179.639 200.472 179.395 200.16C179.226 199.943 179.036 199.603 179.036 198.707H175.202ZM198.755 209.679L198.02 213.443C207.028 215.201 214.395 217.243 219.516 221.029C224.297 224.562 227.463 229.884 227.397 239.35L231.232 239.377L235.067 239.403C235.147 227.804 231.071 220.031 224.075 214.861C217.42 209.942 208.475 207.669 199.489 205.915L198.755 209.679ZM231.232 239.377L227.397 239.348C227.332 248.16 223.712 255.448 217.336 260.607C210.893 265.819 201.388 269.043 189.392 269.043V272.878V276.713C202.705 276.713 214.046 273.134 222.16 266.57C230.339 259.952 234.985 250.489 235.067 239.405L231.232 239.377ZM189.392 272.878V269.043C176.76 269.043 166.781 265.83 160.047 260.492C153.404 255.225 149.632 247.678 149.632 238.206H145.797H141.962C141.962 249.947 146.747 259.736 155.282 266.502C163.726 273.196 175.544 276.713 189.392 276.713V272.878ZM341.945 220.797H338.11C338.11 248.464 318.821 269.043 290.157 269.043V272.878V276.713C323.229 276.713 345.78 252.526 345.78 220.797H341.945ZM290.157 272.878V269.043C261.493 269.043 242.204 248.464 242.204 220.797H238.369H234.534C234.534 252.526 257.085 276.713 290.157 276.713V272.878ZM238.369 220.797H242.204C242.204 193.131 261.493 172.552 290.157 172.552V168.717V164.882C257.085 164.882 234.534 189.069 234.534 220.797H238.369ZM290.157 168.717V172.552C318.821 172.552 338.11 193.131 338.11 220.797H341.945H345.78C345.78 189.069 323.229 164.882 290.157 164.882V168.717ZM265.872 220.797H262.037C262.037 230.019 264.557 238.376 269.41 244.516C274.325 250.734 281.493 254.476 290.157 254.476V250.641V246.806C283.899 246.806 278.925 244.185 275.428 239.76C271.869 235.257 269.707 228.692 269.707 220.797H265.872ZM290.157 250.641V254.476C298.821 254.476 305.989 250.734 310.904 244.516C315.757 238.376 318.277 230.019 318.277 220.797H314.442H310.607C310.607 228.692 308.445 235.257 304.886 239.76C301.389 244.185 296.415 246.806 290.157 246.806V250.641ZM314.442 220.797H318.277C318.277 211.576 315.757 203.219 310.904 197.079C305.989 190.861 298.821 187.119 290.157 187.119V190.954V194.789C296.415 194.789 301.389 197.41 304.886 201.835C308.445 206.338 310.607 212.903 310.607 220.797H314.442ZM290.157 190.954V187.119C281.493 187.119 274.325 190.861 269.41 197.079C264.557 203.219 262.037 211.576 262.037 220.797H265.872H269.707C269.707 212.903 271.869 206.338 275.428 201.835C278.925 197.41 283.899 194.789 290.157 194.789V190.954ZM453.093 220.797H449.258C449.258 248.464 429.969 269.043 401.305 269.043V272.878V276.713C434.377 276.713 456.928 252.526 456.928 220.797H453.093ZM401.305 272.878V269.043C372.641 269.043 353.353 248.464 353.353 220.797H349.518H345.683C345.683 252.526 368.234 276.713 401.305 276.713V272.878ZM349.518 220.797H353.353C353.353 193.131 372.641 172.552 401.305 172.552V168.717V164.882C368.234 164.882 345.683 189.069 345.683 220.797H349.518ZM401.305 168.717V172.552C429.969 172.552 449.258 193.131 449.258 220.797H453.093H456.928C456.928 189.069 434.377 164.882 401.305 164.882V168.717ZM377.021 220.797H373.186C373.186 230.019 375.706 238.376 380.559 244.516C385.473 250.734 392.642 254.476 401.305 254.476V250.641V246.806C395.047 246.806 390.073 244.185 386.576 239.76C383.017 235.257 380.856 228.692 380.856 220.797H377.021ZM401.305 250.641V254.476C409.969 254.476 417.137 250.734 422.052 244.516C426.905 238.376 429.425 230.019 429.425 220.797H425.59H421.755C421.755 228.692 419.594 235.257 416.035 239.76C412.537 244.185 407.564 246.806 401.305 246.806V250.641ZM425.59 220.797H429.425C429.425 211.576 426.905 203.219 422.052 197.079C417.137 190.861 409.969 187.119 401.305 187.119V190.954V194.789C407.564 194.789 412.537 197.41 416.035 201.835C419.594 206.338 421.755 212.903 421.755 220.797H425.59ZM401.305 190.954V187.119C392.642 187.119 385.473 190.861 380.559 197.079C375.706 203.219 373.186 211.576 373.186 220.797H377.021H380.856C380.856 212.903 383.017 206.338 386.576 201.835C390.073 197.41 395.047 194.789 401.305 194.789V190.954ZM491.388 272V275.835H495.223V272H491.388ZM464.909 272H461.074V275.835H464.909V272ZM464.909 169.595V165.76H461.074V169.595H464.909ZM489.339 169.595L492.542 167.485L491.405 165.76H489.339V169.595ZM526.644 226.21L523.442 228.32L530.479 239V226.21H526.644ZM526.644 169.595V165.76H522.809V169.595H526.644ZM553.123 169.595H556.958V165.76H553.123V169.595ZM553.123 272V275.835H556.958V272H553.123ZM528.692 272L525.49 274.11L526.627 275.835H528.692V272ZM491.388 215.385L494.59 213.275L487.553 202.595V215.385H491.388ZM491.388 272V268.165H464.909V272V275.835H491.388V272ZM464.909 272H468.743V169.595H464.909H461.074V272H464.909ZM464.909 169.595V173.43H489.339V169.595V165.76H464.909V169.595ZM489.339 169.595L486.137 171.705L523.442 228.32L526.644 226.21L529.846 224.1L492.542 167.485L489.339 169.595ZM526.644 226.21H530.479V169.595H526.644H522.809V226.21H526.644ZM526.644 169.595V173.43H553.123V169.595V165.76H526.644V169.595ZM553.123 169.595H549.288V272H553.123H556.958V169.595H553.123ZM553.123 272V268.165H528.692V272V275.835H553.123V272ZM528.692 272L531.895 269.89L494.59 213.275L491.388 215.385L488.185 217.495L525.49 274.11L528.692 272ZM491.388 215.385H487.553V272H491.388H495.223V215.385H491.388Z" fill="#FAC3FF" mask="url(#path-1-outside-1_4173_16918)"/>
<defs>
<linearGradient id="paint0_linear_4173_16918" x1="377.256" y1="29.1377" x2="373.866" y2="138.001" gradientUnits="userSpaceOnUse">
<stop stop-color="#EE4FFB"/>
<stop offset="1" stop-color="#F8B4FD"/>
</linearGradient>
</defs>
</svg>
