<svg width="33" height="42" viewBox="0 0 33 42" fill="none" xmlns="http://www.w3.org/2000/svg">
<path d="M12.5102 8.91895C10.049 8.91895 8.05371 10.9142 8.05371 13.3755V29.3276C8.05371 31.4001 9.73374 33.0801 11.8062 33.0801C13.8786 33.0801 15.5586 31.4001 15.5586 29.3276V28.7788C15.5586 26.4033 17.4843 24.4775 19.8599 24.4775C22.2354 24.4775 24.1611 22.5518 24.1611 20.1763V13.3755C24.1611 10.9142 22.1659 8.91895 19.7046 8.91895H12.5102ZM32.2148 21.2739C32.2148 23.3463 30.5348 25.0264 28.4624 25.0264C26.39 25.0264 24.71 26.7064 24.71 28.7788V29.3276C24.71 31.7032 22.7842 33.6289 20.4087 33.6289H19.8599C17.7874 33.6289 16.1074 35.3089 16.1074 37.3813C16.1074 39.4538 14.4274 41.1338 12.355 41.1338H11.8975C9.77462 41.1338 8.05371 39.4129 8.05371 37.29C8.05371 35.1672 6.33281 33.4463 4.20996 33.4463H4.02686C1.80288 33.4463 0 31.6434 0 29.4194V12.8545C0 10.6809 1.762 8.91895 3.93555 8.91895C6.10909 8.91895 7.87109 7.15694 7.87109 4.9834V4.89209C7.87109 2.66812 9.67398 0.865234 11.8979 0.865234H20.3179C22.5418 0.865234 24.3447 2.66812 24.3447 4.89209V4.98389C24.3447 7.15716 26.1065 8.91895 28.2798 8.91895C30.4531 8.91895 32.2148 10.6807 32.2148 12.854V21.2739Z" fill="url(#paint0_linear_255_2922)"/>
<defs>
<linearGradient id="paint0_linear_255_2922" x1="1.49673e-08" y1="8.43826" x2="27.8825" y2="38.0419" gradientUnits="userSpaceOnUse">
<stop stop-color="#EE4FFB"/>
<stop offset="0.447613" stop-color="#FDB5FD"/>
<stop offset="1" stop-color="#6F6BFF"/>
</linearGradient>
</defs>
</svg>
