<svg width="341" height="95" viewBox="0 0 341 95" fill="none" xmlns="http://www.w3.org/2000/svg">
<path d="M57.2939 11.7333C57.2939 15.7212 60.5268 18.9541 64.5148 18.9541H68.5995C72.5874 18.9541 75.8203 22.187 75.8203 26.1749V49.6424C75.8203 53.6304 72.5874 56.8633 68.5995 56.8633H65.379C61.3911 56.8633 58.1582 60.0962 58.1582 64.0841V69.8915C58.1582 73.8794 54.9253 77.1123 50.9374 77.1123H45.132C41.144 77.1123 37.9111 80.3452 37.9111 84.3331V87.5506C37.9111 91.5386 34.6782 94.7715 30.6903 94.7715H26.1779C22.1899 94.7715 18.957 91.5386 18.957 87.5506V83.0382C18.957 79.0503 22.1899 75.8174 26.1779 75.8174H29.3983C33.3863 75.8174 36.6191 72.5845 36.6191 68.5965V62.7941C36.6191 58.8061 39.852 55.5732 43.84 55.5732H49.6454C53.6333 55.5732 56.8662 52.3404 56.8662 48.3524V26.1759C56.8662 22.188 53.6333 18.9551 49.6454 18.9551H26.1759C22.188 18.9551 18.9551 22.188 18.9551 26.1759V69.4588C18.9551 73.4468 15.7222 76.6797 11.7342 76.6797H7.22084C3.23288 76.6797 0 73.4468 0 69.4588V26.1749C0 22.187 3.23288 18.9541 7.22084 18.9541H11.3026C15.2906 18.9541 18.5234 15.7212 18.5234 11.7333V7.22084C18.5234 3.23288 21.7563 0 25.7443 0H50.0731C54.0611 0 57.2939 3.23288 57.2939 7.22084V11.7333Z" fill="url(#paint0_linear_4173_16861)"/>
<path d="M110.105 66.3696V29.9766H124.922C132.824 29.9766 138.075 34.7077 138.075 42.0903C138.075 49.4209 132.824 54.152 124.922 54.152H117.903V66.3696H110.105ZM124.194 36.4753H117.903V47.6532H124.194C127.833 47.6532 130.173 45.5216 130.173 42.0903C130.173 38.6069 127.833 36.4753 124.194 36.4753ZM152.196 66.6816C143.67 66.6816 138.107 61.2226 138.107 53.0082C138.107 44.7938 143.67 39.3348 152.196 39.3348C160.723 39.3348 166.286 44.7938 166.286 53.0082C166.286 61.2746 160.723 66.6816 152.196 66.6816ZM152.196 60.7027C156.304 60.7027 158.851 57.5313 158.851 53.0082C158.851 48.485 156.304 45.3137 152.196 45.3137C148.089 45.3137 145.594 48.485 145.594 53.0082C145.594 57.5313 148.089 60.7027 152.196 60.7027ZM173.983 66.3696L165.249 39.6467H172.995L178.35 58.4671L183.393 39.6467H189.996L194.883 58.5191L200.342 39.6467H207.829L199.042 66.3696H191.244L186.565 50.2527L181.782 66.3696H173.983ZM221.075 66.6816C212.184 66.6816 206.829 61.3266 206.829 53.0602C206.829 44.7418 212.288 39.3348 220.555 39.3348C228.561 39.3348 233.968 44.3258 234.072 52.1763C234.072 52.9562 234.02 53.84 233.864 54.6719H214.472V55.0358C214.628 58.8311 217.072 61.1186 220.763 61.1186C223.726 61.1186 225.806 59.8189 226.43 57.3234H233.656C232.824 62.5224 228.197 66.6816 221.075 66.6816ZM214.628 49.8888H226.69C226.17 46.6134 223.934 44.7938 220.607 44.7938C217.435 44.7938 215.044 46.7174 214.628 49.8888ZM251.544 39.6467H252.792V46.3015H249.88C245.513 46.3015 243.849 49.2129 243.849 53.2681V66.3696H236.519V39.6467H243.173L243.849 43.65C245.305 41.2584 247.385 39.6467 251.544 39.6467ZM250.991 62.3664C250.991 59.8189 252.862 57.9992 255.41 57.9992C257.905 57.9992 259.829 59.8189 259.829 62.3664C259.829 64.8619 257.905 66.6816 255.41 66.6816C252.862 66.6816 250.991 64.8619 250.991 62.3664ZM266.647 66.3696L257.913 39.6467H265.659L271.014 58.4671L276.057 39.6467H282.66L287.547 58.5191L293.006 39.6467H300.493L291.706 66.3696H283.908L279.229 50.2527L274.446 66.3696H266.647ZM305.189 36.7873C302.798 36.7873 300.926 35.0196 300.926 32.6801C300.926 30.2885 302.798 28.5209 305.189 28.5209C307.581 28.5209 309.453 30.2885 309.453 32.6801C309.453 35.0196 307.581 36.7873 305.189 36.7873ZM301.498 66.3696V39.6467H308.881V66.3696H301.498ZM327.714 39.3348C333.485 39.3348 338.424 42.4022 338.424 51.5525V66.3696H331.094V52.2803C331.094 47.7572 329.378 45.3656 325.687 45.3656C321.892 45.3656 319.708 48.0691 319.708 52.6962V66.3696H312.377V39.6467H318.772L319.448 42.9741C321.164 40.8945 323.607 39.3348 327.714 39.3348Z" fill="white"/>
<defs>
<linearGradient id="paint0_linear_4173_16861" x1="3.52267e-08" y1="17.823" x2="65.6207" y2="87.4972" gradientUnits="userSpaceOnUse">
<stop stop-color="#EE4FFB"/>
<stop offset="0.447613" stop-color="#FDB5FD"/>
<stop offset="1" stop-color="#6F6BFF"/>
</linearGradient>
</defs>
</svg>
